<mxfile host="www.draw.io" modified="2019-11-23T03:41:39.958Z" agent="Mozilla/5.0 (Windows NT 10.0; Win64; x64) AppleWebKit/537.36 (KHTML, like Gecko) Chrome/78.0.3904.97 Safari/537.36" etag="eOR97aCH09LfRD25Qo0M" version="12.2.9" type="github" pages="4">
  <diagram id="mkCGWz3tRu-jMJ5IsVwR" name="Page-1">
    <mxGraphModel dx="1128" dy="560" grid="1" gridSize="10" guides="1" tooltips="1" connect="1" arrows="1" fold="1" page="1" pageScale="1" pageWidth="827" pageHeight="1169" math="0" shadow="0">
      <root>
        <mxCell id="0"/>
        <mxCell id="1" parent="0"/>
        <mxCell id="ZRHdMksBV3v8EwZyY3YF-148" style="edgeStyle=orthogonalEdgeStyle;rounded=0;orthogonalLoop=1;jettySize=auto;html=1;exitX=0;exitY=0.75;exitDx=0;exitDy=0;entryX=1;entryY=0.5;entryDx=0;entryDy=0;startArrow=none;startFill=0;endArrow=classic;endFill=1;strokeColor=#000000;fontSize=17;fontColor=#000000;" parent="1" source="ZRHdMksBV3v8EwZyY3YF-137" edge="1">
          <mxGeometry relative="1" as="geometry">
            <mxPoint x="106.16666666666674" y="509.66666666666674" as="targetPoint"/>
            <Array as="points">
              <mxPoint x="389" y="510"/>
            </Array>
          </mxGeometry>
        </mxCell>
        <mxCell id="ZRHdMksBV3v8EwZyY3YF-137" value="" style="rounded=0;whiteSpace=wrap;html=1;" parent="1" vertex="1">
          <mxGeometry x="389.5" y="345" width="235" height="210" as="geometry"/>
        </mxCell>
        <mxCell id="CuCtxhXRio4zk_e6Cdl8-53" value="" style="rounded=0;whiteSpace=wrap;html=1;" parent="1" vertex="1">
          <mxGeometry x="488" y="189.5" width="166" height="80" as="geometry"/>
        </mxCell>
        <mxCell id="ZRHdMksBV3v8EwZyY3YF-110" style="edgeStyle=orthogonalEdgeStyle;rounded=0;orthogonalLoop=1;jettySize=auto;html=1;exitX=0.1;exitY=0.5;exitDx=0;exitDy=0;fontSize=12;fontColor=#000000;exitPerimeter=0;entryX=0;entryY=0.5;entryDx=0;entryDy=0;entryPerimeter=0;" parent="1" source="ZRHdMksBV3v8EwZyY3YF-17" target="ZRHdMksBV3v8EwZyY3YF-93" edge="1">
          <mxGeometry relative="1" as="geometry">
            <mxPoint x="865" y="402" as="targetPoint"/>
            <Array as="points">
              <mxPoint x="865" y="450"/>
            </Array>
          </mxGeometry>
        </mxCell>
        <mxCell id="ZRHdMksBV3v8EwZyY3YF-41" value="" style="rounded=0;whiteSpace=wrap;html=1;" parent="1" vertex="1">
          <mxGeometry x="660" y="190" width="181" height="81" as="geometry"/>
        </mxCell>
        <mxCell id="CuCtxhXRio4zk_e6Cdl8-18" value="" style="edgeStyle=orthogonalEdgeStyle;rounded=0;orthogonalLoop=1;jettySize=auto;html=1;entryX=0.5;entryY=1;entryDx=0;entryDy=0;" parent="1" source="CuCtxhXRio4zk_e6Cdl8-1" target="CuCtxhXRio4zk_e6Cdl8-2" edge="1">
          <mxGeometry relative="1" as="geometry">
            <mxPoint x="60" y="294.5" as="targetPoint"/>
          </mxGeometry>
        </mxCell>
        <mxCell id="CuCtxhXRio4zk_e6Cdl8-1" value="内管系统" style="outlineConnect=0;fontColor=#232F3E;gradientColor=#60A337;gradientDirection=north;fillColor=#277116;strokeColor=#ffffff;dashed=0;verticalLabelPosition=bottom;verticalAlign=top;align=center;html=1;fontSize=12;fontStyle=0;aspect=fixed;shape=mxgraph.aws4.resourceIcon;resIcon=mxgraph.aws4.elastic_file_system;" parent="1" vertex="1">
          <mxGeometry x="22.5" y="334.5" width="73" height="73" as="geometry"/>
        </mxCell>
        <mxCell id="CuCtxhXRio4zk_e6Cdl8-19" style="edgeStyle=orthogonalEdgeStyle;rounded=0;orthogonalLoop=1;jettySize=auto;html=1;exitX=0.5;exitY=0;exitDx=0;exitDy=0;entryX=0.5;entryY=1;entryDx=0;entryDy=0;" parent="1" source="CuCtxhXRio4zk_e6Cdl8-2" target="CuCtxhXRio4zk_e6Cdl8-3" edge="1">
          <mxGeometry relative="1" as="geometry"/>
        </mxCell>
        <mxCell id="CuCtxhXRio4zk_e6Cdl8-2" value="数据接口" style="rounded=0;whiteSpace=wrap;html=1;" parent="1" vertex="1">
          <mxGeometry x="19" y="269.5" width="80" height="30" as="geometry"/>
        </mxCell>
        <mxCell id="ZRHdMksBV3v8EwZyY3YF-30" style="edgeStyle=orthogonalEdgeStyle;curved=1;rounded=0;orthogonalLoop=1;jettySize=auto;html=1;exitX=1;exitY=0.5;exitDx=0;exitDy=0;entryX=0;entryY=0.5;entryDx=0;entryDy=0;fontSize=12;" parent="1" source="CuCtxhXRio4zk_e6Cdl8-3" target="CuCtxhXRio4zk_e6Cdl8-12" edge="1">
          <mxGeometry relative="1" as="geometry"/>
        </mxCell>
        <mxCell id="CuCtxhXRio4zk_e6Cdl8-3" value="数据预处理" style="rounded=0;whiteSpace=wrap;html=1;" parent="1" vertex="1">
          <mxGeometry x="20" y="164.5" width="80" height="80" as="geometry"/>
        </mxCell>
        <mxCell id="ZRHdMksBV3v8EwZyY3YF-37" style="edgeStyle=orthogonalEdgeStyle;rounded=0;orthogonalLoop=1;jettySize=auto;html=1;exitX=1;exitY=0.5;exitDx=0;exitDy=0;entryX=0.5;entryY=0;entryDx=0;entryDy=0;fontSize=12;" parent="1" source="CuCtxhXRio4zk_e6Cdl8-5" target="CuCtxhXRio4zk_e6Cdl8-53" edge="1">
          <mxGeometry relative="1" as="geometry"/>
        </mxCell>
        <mxCell id="CuCtxhXRio4zk_e6Cdl8-5" value="客户信息" style="rounded=0;whiteSpace=wrap;html=1;fillColor=#d5e8d4;strokeColor=#82b366;" parent="1" vertex="1">
          <mxGeometry x="279.5" y="153.5" width="110" height="30" as="geometry"/>
        </mxCell>
        <mxCell id="ZRHdMksBV3v8EwZyY3YF-143" style="edgeStyle=orthogonalEdgeStyle;rounded=0;orthogonalLoop=1;jettySize=auto;html=1;exitX=0.5;exitY=1;exitDx=0;exitDy=0;entryX=0.5;entryY=0;entryDx=0;entryDy=0;startArrow=none;startFill=0;endArrow=classic;endFill=1;strokeColor=#000000;fontSize=17;fontColor=#000000;" parent="1" source="CuCtxhXRio4zk_e6Cdl8-6" target="ZRHdMksBV3v8EwZyY3YF-142" edge="1">
          <mxGeometry relative="1" as="geometry"/>
        </mxCell>
        <mxCell id="CuCtxhXRio4zk_e6Cdl8-6" value="n个分析维度信息" style="rounded=0;whiteSpace=wrap;html=1;fillColor=#f8cecc;strokeColor=#b85450;" parent="1" vertex="1">
          <mxGeometry x="279.5" y="216.5" width="110" height="30" as="geometry"/>
        </mxCell>
        <mxCell id="ZRHdMksBV3v8EwZyY3YF-32" style="edgeStyle=orthogonalEdgeStyle;rounded=0;orthogonalLoop=1;jettySize=auto;html=1;exitX=1;exitY=0.5;exitDx=0;exitDy=0;entryX=0;entryY=0.5;entryDx=0;entryDy=0;fontSize=12;" parent="1" source="CuCtxhXRio4zk_e6Cdl8-12" target="CuCtxhXRio4zk_e6Cdl8-5" edge="1">
          <mxGeometry relative="1" as="geometry"/>
        </mxCell>
        <mxCell id="ZRHdMksBV3v8EwZyY3YF-33" style="edgeStyle=orthogonalEdgeStyle;rounded=0;orthogonalLoop=1;jettySize=auto;html=1;exitX=1;exitY=0.5;exitDx=0;exitDy=0;entryX=0;entryY=0.5;entryDx=0;entryDy=0;fontSize=12;" parent="1" source="CuCtxhXRio4zk_e6Cdl8-12" target="CuCtxhXRio4zk_e6Cdl8-6" edge="1">
          <mxGeometry relative="1" as="geometry"/>
        </mxCell>
        <mxCell id="CuCtxhXRio4zk_e6Cdl8-12" value="时间区间选择" style="rounded=0;whiteSpace=wrap;html=1;fillColor=#dae8fc;strokeColor=#6c8ebf;" parent="1" vertex="1">
          <mxGeometry x="130" y="178" width="110" height="53" as="geometry"/>
        </mxCell>
        <mxCell id="ZRHdMksBV3v8EwZyY3YF-140" style="edgeStyle=orthogonalEdgeStyle;rounded=0;orthogonalLoop=1;jettySize=auto;html=1;exitX=0;exitY=0.5;exitDx=0;exitDy=0;entryX=1;entryY=0.5;entryDx=0;entryDy=0;startArrow=none;startFill=0;endArrow=classic;endFill=1;strokeColor=#000000;fontSize=17;fontColor=#000000;" parent="1" source="CuCtxhXRio4zk_e6Cdl8-16" target="ZRHdMksBV3v8EwZyY3YF-137" edge="1">
          <mxGeometry relative="1" as="geometry"/>
        </mxCell>
        <mxCell id="CuCtxhXRio4zk_e6Cdl8-16" value="根据源数据内容&lt;br&gt;更新邻接矩阵" style="rounded=0;whiteSpace=wrap;html=1;" parent="1" vertex="1">
          <mxGeometry x="710" y="502.5" width="105" height="52" as="geometry"/>
        </mxCell>
        <mxCell id="CuCtxhXRio4zk_e6Cdl8-27" value="" style="html=1;verticalLabelPosition=bottom;align=center;labelBackgroundColor=#ffffff;verticalAlign=top;strokeWidth=2;strokeColor=#B3B3B3;fillColor=#ffffff;shadow=0;dashed=0;shape=mxgraph.ios7.icons.user;" parent="1" vertex="1">
          <mxGeometry x="411" y="385.5" width="30" height="30" as="geometry"/>
        </mxCell>
        <mxCell id="CuCtxhXRio4zk_e6Cdl8-32" style="edgeStyle=orthogonalEdgeStyle;rounded=0;orthogonalLoop=1;jettySize=auto;html=1;exitX=0.5;exitY=0;exitDx=0;exitDy=0;exitPerimeter=0;entryX=0.5;entryY=1.027;entryDx=0;entryDy=0;entryPerimeter=0;endArrow=none;endFill=0;startArrow=classic;startFill=1;strokeColor=#B3B3B3;" parent="1" source="CuCtxhXRio4zk_e6Cdl8-29" target="CuCtxhXRio4zk_e6Cdl8-27" edge="1">
          <mxGeometry relative="1" as="geometry"/>
        </mxCell>
        <mxCell id="CuCtxhXRio4zk_e6Cdl8-29" value="" style="verticalLabelPosition=bottom;html=1;verticalAlign=top;align=center;strokeColor=#B3B3B3;fillColor=#00BEF2;shape=mxgraph.azure.computer;pointerEvents=1;" parent="1" vertex="1">
          <mxGeometry x="416" y="440.5" width="20" height="17" as="geometry"/>
        </mxCell>
        <mxCell id="CuCtxhXRio4zk_e6Cdl8-37" value="" style="html=1;verticalLabelPosition=bottom;align=center;labelBackgroundColor=#ffffff;verticalAlign=top;strokeWidth=2;strokeColor=#0080F0;fillColor=#ffffff;shadow=0;dashed=0;shape=mxgraph.ios7.icons.user;" parent="1" vertex="1">
          <mxGeometry x="411" y="468.5" width="30" height="30" as="geometry"/>
        </mxCell>
        <mxCell id="CuCtxhXRio4zk_e6Cdl8-38" style="rounded=0;orthogonalLoop=1;jettySize=auto;html=1;exitX=0.5;exitY=0;exitDx=0;exitDy=0;exitPerimeter=0;entryX=0.5;entryY=1.027;entryDx=0;entryDy=0;entryPerimeter=0;endArrow=none;endFill=0;startArrow=classic;startFill=1;" parent="1" source="CuCtxhXRio4zk_e6Cdl8-39" target="CuCtxhXRio4zk_e6Cdl8-37" edge="1">
          <mxGeometry relative="1" as="geometry"/>
        </mxCell>
        <mxCell id="CuCtxhXRio4zk_e6Cdl8-39" value="" style="verticalLabelPosition=bottom;html=1;verticalAlign=top;align=center;strokeColor=none;fillColor=#00BEF2;shape=mxgraph.azure.computer;pointerEvents=1;" parent="1" vertex="1">
          <mxGeometry x="401" y="523.5" width="20" height="17" as="geometry"/>
        </mxCell>
        <mxCell id="CuCtxhXRio4zk_e6Cdl8-40" value="" style="verticalLabelPosition=bottom;html=1;verticalAlign=top;align=center;strokeColor=none;fillColor=#00BEF2;shape=mxgraph.azure.computer;pointerEvents=1;" parent="1" vertex="1">
          <mxGeometry x="431" y="523.5" width="20" height="17" as="geometry"/>
        </mxCell>
        <mxCell id="CuCtxhXRio4zk_e6Cdl8-41" style="rounded=0;orthogonalLoop=1;jettySize=auto;html=1;exitX=0.509;exitY=1.007;exitDx=0;exitDy=0;exitPerimeter=0;entryX=0.5;entryY=0;entryDx=0;entryDy=0;entryPerimeter=0;endArrow=classic;endFill=1;" parent="1" source="CuCtxhXRio4zk_e6Cdl8-37" target="CuCtxhXRio4zk_e6Cdl8-40" edge="1">
          <mxGeometry relative="1" as="geometry">
            <mxPoint x="421" y="533.5" as="sourcePoint"/>
            <mxPoint x="436" y="509.31000000000006" as="targetPoint"/>
          </mxGeometry>
        </mxCell>
        <mxCell id="CuCtxhXRio4zk_e6Cdl8-54" value="用户网络图" style="text;html=1;strokeColor=none;fillColor=none;align=center;verticalAlign=middle;whiteSpace=wrap;rounded=0;fontSize=17;" parent="1" vertex="1">
          <mxGeometry x="451.5" y="345" width="114" height="30" as="geometry"/>
        </mxCell>
        <mxCell id="CuCtxhXRio4zk_e6Cdl8-200" value="" style="shape=image;verticalLabelPosition=bottom;labelBackgroundColor=#ffffff;verticalAlign=top;aspect=fixed;imageAspect=0;image=data:image/png,iVBORw0KGgoAAAANSUhEUgAAAIAAAACACAYAAADDPmHLAAAABGdBTUEAALGPC/xhBQAAACBjSFJNAAB6JgAAgIQAAPoAAACA6AAAdTAAAOpgAAA6mAAAF3CculE8AAAABmJLR0QAAAAAAAD5Q7t/AAAACXBIWXMAAOpgAADqYAGEyd52AAAAB3RJTUUH4wEJBAk7e6xfBwAAJAhJREFUeNrtfXmQHcd53+/rmXnH3rvYxbHALoDFjQXA2zwAHjpCkRRFSUmRFZWTWJYsS1ZVrMSVlEupRIWorMiuJGVHceyUorLiyGaVpESnKcqCZJGUSAKkeIE4iIPESRALYhcEFljsvpnpL3/Mm3lzdL/X894uAIH4ULt426+n++vv+7r7u7oHuAbX4Bpcg2twDa7BuxHociNwpcFDf/Y5sOtDtBdBAApkgwUw7VVgkcD3PvtfLzeKswr25UbgcsM9W7dC2AIDfTMg4QOWgC0sHD530uktdPSC0EegGSI6RkTe5cZ3tuFdIQCD374Pt41fB4sIFhFssiCEBRAgJeOVFwcw0He8H8ByAoalLxcPtc9f5rO/BsxrPd/7hee6f8DCmrjcY5ltuOoE4OFvbcVvPbIVf/vVfwdmCRIC9qSN4Xnz8PLJw4W2QqHokF3y/MogC1oHyRs23nBsBUCLJdMCX/oDru/3er6HabeCGa8Cz5fPexVXkhCXe3izDleFAPz7p/8GO199CeVCEWLSxbe+9gVMTp212pzigCAxANC8o+fGh3vK7aMA1knmVQwa8HxZ8nyv5HqeVfFdzPguKp4LX0owM6SUkGBAgqXrAdcE4PLAp/7qi3hnehJOoQAigiNsFBwHn7n3k/ij//tfxNH9+6loOZ2CxGrBWAFBS+Z19CyXzMsYPOxLf4nne90V34Pruaj4Hjzpw/M9VHwPUkoAAIOjPpmDvwgEpvDT1QdXpAA8/D/+LQDAKhXgWBY8Ygz0DuDExFixXCh2wEK54nt9f/Z3f7Gxs9R+PREtb3NKw76U8xmyu+K7nTOea814FbieC9f34bMPX8podoMI4BjDY8zPAl+VzAcukwB8/OtbAQCe78GybVjCgrQAf8aFAEEIga//+Z/TI5/51ADASwEsmKnMzO9t7x5lyFECLfdZLvRYljzfsz3fFxXfxYznwvVdeFJCSg4YjSyTiaj6txrYWDB+/eGSCMDHv74VNgMzAiBiWBAoOA6GF67ECwd32x2FklVwHKci5DJibBJCrPrUv/rckM88zMzDLHlBRbo9M16wR7syXMJ9uNUlPLl86zAh4CpnaF6YEwF4+FtbwQR0T1vwWcImC47t4MjbJ6yBzo4+R4heAF2H3jyyvKfcfhOAUfZ5mWWJXl/Kzhmv0u76vlXxPYTLuGSGLyUkV5ndDB85ucerq8TLr35haVoAPvH1/whZJFgeQZCAY9uwraA5nyV2dbyDnml7gIBlAIbAPLiif9FSX8o1BF7tSn/Qk36b63vC9T1yfa86o13M+F6NEdX/GTXmECg547Wz34TJ+mX+6me/oQDc/5V/if/+sc/jS499FZbjQFQ18YXledh96vVCuVAuOoTijO8u8aUcJWDN+rOdK2HTkMXWfCll/7RX6XV9jyqeh4rvwvN9+NWl3K8u4QFjkWE+oF+89Xt0iskGMz75WdvUVQVaAfidR7+Miu+iYFuwIPDffv4oXju6X6wdWbeAIAZA6B2bmRjq6+i+gYHVYIwIYIHPXPakX5x2faviuaj4LlwvYLRkrppXXCVwnMH19ewEP7TMbDxgNqmk7PvqtAMyAvC7j/4nSEgqWLYgoJ2IVwvQSmZecvPaG5cyYyWDl7KUi1zpdbu+RxXfg+d7cGWglHm+B8mc4IiME55rM7oZhpiAmcA0nv1zhd+VAhkBKNkFABgB6D/bTnGJZH9AStlT8d0O1/dst7qEx23rmhZOLREsuX2zslxnohnN/ktP3yseMgIwVZkBCPOk5A+70hMVL3SP+mBGdfnmiPhJxSwGBgycK46kPXrKOho8dNUh2UPJwvVf/mfasaXbrdHIDDedQGufaURjCj5TrN7BL34v0WdGAMbOnwmWZ2YJQOiImNbEW4XcwqOuPrsQtcu3oU18FRbN4NdLGZAA9gP4Jgs6JFyZqZBVArmBUzQyyzgl7ck26j1be6aV7SI7uxJtsh4/HR76trCcPbmciACh538rHsS825lhowDgM9FGYv4c23Q6XWXOw1t6I81kj9eVz+bKww3LGQx4ElzxASlj5fnabBW/XMt/7VkLhAeYaAlTVngb+gGM9lPts5cWTBw6TSmRoe7j+QBLUMEKgknx9mMOq8RvRqY87LvWZ6hCh5aRZkTR6pz0hGZWX0oZ1YwOAAXV0C5ZMEhLeG0dTTuXQKwSfTCjYNsoFcoRg8gSoIINqm4HcZ9GhtEaRtVd0ThbrnNRp9tnZlyoXETFc5NNashWVwB0COgYWLenFsBE+UszTYVfMyaqZMboohE8sO4OFG0nasNybJTb2mBbVtrnqKFlwyqJL00xTY/JlxJ/veMx7Di8S0mnNMzqCtDK/n2pHS4me3+I1/zOPtwxshFtTin6lgAUCgW0d3RcUXaBZMa213YY19cKQFOzPyeY6A4me7bJ7K+LB9f/gquRSJ9lAh9v+iI86aOjowOWZbVIjdkBX/qQHFNUGxAhYwVUPfXxAjVtMrS6smd/bkGKASFIIhEURD7jP57rYWpqCix/Pf2MubYAEwVstmZd8HHuZ78ev5o37YI7jRNnT6PsFDN9EAAQoVBw0NbWDmGJqHMiwrz2LpScYqLdsckJuP7sHDHoKreju9SRj8YxaF4HMAiYGDHwCpn9uvqCBF45fgDHx8cgSEQD55gyEH4UloBVcKKyslPEv37vP8WNQ2uj9mZ8F3/047/Cm++8HaWmmeCa+cgMIQQeufH9+NjN9zamQTXcnga7wVNqZOYKZmn21yNCM9+dm57C2QuT+m0urrkLAjnBoZP2QhnnZ6ZSQ2QcfPs43hh/sypQOrufk0PK9M2whIVTk+qzKio6qcbY1Aqgm8FGiuOlkKMErvniB+q4R/V3A22fgEAX8CTIsaozPPtQ4FEOdIowQTnEO6wdL0+PLcRHEClndR4SGwnAnM1+jYSbp2srnp0r9MANyyPwq9ZCYZbwqiPEjXpoRD+heKL20wAXk9nfDHIG+mFLbt+8REq0WmcVSPQnJbjigaWsUz8PDvq+jAmogIbBIFOHicnzuT13JluHYeRR94hxrKO6mpsyjQFIKTF9cRrS1wtBQ9zrWjb1eWDCo1zRQO2+eUnCPgaxhBYI0TJ28SSMWH+u52Hq4lR0/EyFbCv4teqEnPVwsC5dW1dHQxOj9pvCL+fs1z2rBFIXhc4iaRJKzh3yNaMTp/IjQsgRDDLryER3MPkib1qXCSGa0RVrCTBhW7UE9fgBlei7MF2Ok+ad67qYujAFOAJhvmxw6DSGIyc/Q7XSMVLtmwiuvk5zZqCBf9jEJNQ82jIYzeYcOsxARw+W9iyARVbD5+PlRbuA3rauKEzrei6kD9w8tBZL+xZm8iizJ57UAhB+EEJg2bzBlmhlGAzSlLfKtpyzP3eypzEa+rakZFy3eBU+vfkjaC+UM3VV3rx4WdFO5mEIBj535yMolkqwYm7jpoAAx3KaGlsIGQFomqmXcfbnXf7z7v22sNBeKKOtUKplQVPkHoqFiCnhL4q3HBcKBxYsCZSLRYjLfOlEYzNwjjT/3Ic1DJ6dK/zSCbDJfmIQ8+jV651DnWBKYR3MIhgJt0EzCcSVI8/hVp2DYTbsr5XZD3AQChYicN2Cqi7a5NKvKgPCMxRJsIQAQJC+xPT0NMrlsnIruRRgrAS2PKPQ/Mw2NQ91Ea+8Y4jjQUQ4PP4WvvvyE8F+S4mK1TpqXG1h4/aRDVjU1R+V+Szxo13PYPLihYjplmPDKTggErF29H7ecByCCJsWr8L1S1bXHUO9cdc3A3Oeqol31qqSpqrHCC5uimYVh0wXsC0LTjU/r+K5TYurSsnbf+ooDp46VofAMQxDaxCMNqeEwe5+DHb1B0YiEVzPw9889ziOTpwMooGh8AgCbJHQHyKjM2buxQ1Hiyx8estHMwKQZ7LObk5gA2dlbTlU1NMd1Yp9314oY3nfInSVO1B2Cig7RZScAkp2EW2FEkpOEU8dfBEvHH0tmp15on46kFLCYxmzwGIjZcUmWT2SZYvggox0mnbFD05Nx2c8wIAbCEGwpKT7SPXCgCUseL7fEs+yVoBm5jVmVPY5xwru/6Fq2DIMgbYVSmgrlPDW2dM4N30hs2zrJPi25aP4xO0Pob1QRsGyUbAdOJYd3St04NQx/Gj3LyFZQpCAlGbLoA6iZ6qqfnx2hjgHK1CsPBpKEDwgyt5tQOF3ib6qWSQ+gywCx4QmvrVF9yhQrBuTMWjA4GBIfmAOFKd7Vt+E31i6Hu2FMtoLJbQXA1PKsWwIInz3lSfxjR2Pw4ulR6n8/MyMgY5efGTT3RjuXVA7al51b/osMe3O4PHdT2Pf2FEIEnW9fq3kMHAUGVKAUhcIcwIMKSkZkn2QbUUriQqnaH9oEfLlBBo4bmrjYJy7eB43Dq1FZ6ktO34C7l17K559Yyf2njxcV3kjIty96gasW7gcvspsIsKBt49h277nlXSZq2BQgjmkFpg0Lso0sCzxglNIdms+glmPBtZFOj1QAC+/eQDPHtpZuxUk/o8ZC7p68eDGLSjaBW17khlDvfPxwOgdKFhqeZ12K/j+zl/g1OSZGMFN4gf5HFZ1B2tSzcDUi/CQDPZkKtYQ1mncF2faVT8nTBsxnf3xelOVafxo97MYm5xQu0whcNuyDbhpeC2YZWb5ZwAFy8Z9627HsnmLlDgIIjx/ZA+eeWNnQ8o05yauYatMhqF6zKkphU3Z+VKCfb/BuLhheb3HDTyBGs1eVZ5OmSaB/aeO4qmDLyk9XpIl5rV34951t6Kn3JE9ts0Sq+cP4Z7VN8EiK7uLEGH8wjn8eM92TEydq10AybWESrNUdgN3dVXfiH5iK1mmvPo51FWoTlsy8Vlmy6WE9H1l/fg41axvDHWCQfnKVUAAZrwKfrJ3B25Zuh4j8waTdwUhWOJvXTaKW5aNYttrOxKes7JTwgc3bMZgd3/itEuMkthxaBeeO7w7wXztmFTLvMZvG18ybWHBjgd1mGtaeFpkuBY6biuUYAsLcSWQALQVSugoBt4/VfAv0WKYhSQQKIZhNQ48ikVbEQzKwSTb5FmT5V/n3SMEnrSf7NmOT97x4aobNAklp4iHNt6Jl4/vw9uT70Rtb1q8EltWXK/UoQmEt8+fwfdffRIX3RlNBm3re7xkxrpFy/CBtbcGh0MztKkxKkNcy8aK/sWJ/gq2g09t/gjOVy7WiEWaW9JSRSQEbMepBpACS2vtgmVKzmTw08AlOR4umfHEgRexZcX1GB0cyQoUM9YsWIr3rL4Z33rhp2BmdJba8aGNW9Ct2BqCITJ+tu957Bs7itlyoycFo+bRXNIzHx9Yfxvai+UMnZO2fwgUlYVLNhBsWRZZeN/aW1BbFdKxBVVZtVUKnD9OUXnUPzseAznPpQNkkhca1YntgWPnJvDYrl9iamY6oxAxgrj5P1p7K5b3D0KyxOaRTbgpdqImgTQJvDF+Aj/esx0zXkWDh8HsN1oIGBLhNbUc3TjuS1m9+1AmysLrbBM3kyOpBAbf+am6fp2yWj8Vz8XFixdnLYpY3wrIqTU3qr3j8G68dHyf0mqSLLGifzHuWXUThnoW4L71t6Gj2Jb1zYMw41Wwbe8OHBo/EZ2uaRXqCTRVPY0ECrya1R8hROJvZRmyFkB00NTkeUUZcxBOzpP5nDn0W4Uc0UBN64ZARJiYmsTje57FhsEV6Cq1Z+oIErh//e2Y19aN0UUjSsWPCDhw6hh++tpz8GXND26SH9gszHguJi6cw7Rb0eoP4SHRZBmhs9QGJ+a/YDDOTp2vjo1SDaSTSaju9mZZFno6urJbUw5oWQfIE/UTRPjVkb3YfuhV3LvutuwzYAx09uK+0dshNCO/6M7gezufjHwLjVYps8OW+u1CCMJLx/fhiz/6GoQQCr9H8H/8eFfYTskp4tNbPoJNgyuj8orn4U+2fQNj58ZTVkCqXc3n+F+CCB+94T342G/c13Q+gWEwSDHienXqwIxbwWO7nsb1S9ZgfmevwvZnLfOJCC8d24/th3ZF8YY0znrz1dyNHW+HQDgzdQ6nz79TizCm2BZ6gePBI+bA3Dt78QLSmcR7Tx7C4fG3qvgnw7wqMsd8UVEkMAgHC9y8dD0qlQqcyDowG18ILW2g+Y+FByG118aO4B/2Pa+27XWIEuGdqUn88NWncCbm9GkGPx1N6tWP9vKqVy/an1N6QfAjEjpACPE8wjBKWHum9hmxNhF+LygyF2u6RfC39CVc121KMcwnAC3O/mDwhIrnYttrz+HQaXMljgE8c2gnXji2L/frm1rPZmr8RW32U9a3pHMFmw5DlWWaQsT3/YwQzEowSLukNjP7w/EQ4fD4Cfx03/Oo+C4aARHh7ckzeOzVp3FhZjoZds2bOGq09zemgpJ3kSKQ9OSRojW1SU3ZpT9qsjEzpZRa60B3MqhBMCjnvpkny4YZ2/buwP6xow2XcykZ2157DntOHk7m383i2QAtDRQCXUvTCssRMZ91m3cc1NJjVKQcX7R1BELge742uzoN5ltAiwmbKhi/cBY/fPUXuFiZ1q6GRITDEyfw93t31L1Xx0j5y7v3q/AxLtSPJ3LmR78VwmMg6FpaVINIJqAVgNnMAlaXEzwpsf/UUZw6f0a7Cggi7Bs7gpNnT2M2oZH2r1oy47d3ZAozDWWjTMamGpltvdowRNW4YF82FJ7G18SlRqw9ml1vz2X1F7awcMPQGizq6s9ECUOQzLhuyWos7x9MNJT3WrpWkkPD6F42HIxkOFfKZB0OgwVJ5gdtIRvarf7LhnyzP5I1Ihy3PBhgn+su03MSDDLRHZgZi3sG8MDoZhQsp65esahrHh7ceCf2nzo6K9er5TmixmD0tXVisHsAFqUdQXXemVB1BHW1Ja9wEySwftEI+tq6M0JRbTKLkya3wSKBwZ6B2kpAKvuoVQEw2PvzBlsYwQ1XD2y4I8j0abDdEBG2jGzCkwdewDNvvJrKpjXAI9V3HpCSccPQWvzeln8cnA0Ea5fyNPmJAldwHAq2g89/4LcSuY0qN3IjeoRQrt5BqM41rEU0dcOe1Ysi61+ZUvtOSonRwRHcs+om2MJq6BBiZvS2deHBDVuw961DODM1mcv1abL811Mii46DvvYutBfKemVdc0o4vcUIIvS2dWXqmYJpXVNBbxANVDfYipkVHvD4wPpb9Zk+mgHdPLwOty7foMavlaROBY5pOkQXRaj2ZEW5qp1kyhrXb1PxA00/WVqZw5wFg1CneOPiFbhr5Y253jvEzGgvlvHQxrvw4rF9OHVuAib2l4kQN9pGiAiWZcESWR2glrjByrJQoYvP3PBwqPpAqRp0CSLx3MNYRWPIfU9gU5m1sec7imU8tOkubaYPEJztKyhy3ZgZ6xctxz2rbsK3X/xpLfHTaPbnmy015gPH3xnD47ufqV72wKFij0bOG1tYuHFoLRZ09UVlvvTxD/t+hQthSpjmWS1PY7YfkcCaBcNRWlikBOZgkSIaaP5wM6HWO0Y24oYla5TtERGOTpzEEwdexMM3vi98h2ECCpaND27YjB2Hd+HQ6bfqCnwrpl8IggR2nziEA2PHaq90Aad8AtmALYPRXihh6wd/Fwu75kV0qPge/ufT38HRiZMxp1B9t28igTWgVBCqJoHf2fwQ1i1Y3vQpoTk5GqYCyRILu+bh/tHN6Ci2Kfd+1/fww12/wE/27MCyvkW4e9UNyizikXmDuH/97fja0z8wiiWYgk4wPOnBrb6CJRO8rUY409IWji6etAIEVacq0zg/M5WwGjLbUJRfwEkhiZ0RtMgKXg3TQk6kgStYs2/mNP0ECWxZcT02LBoBK5hvCYG9Jw/jqYMv49T5d/DjvdsxcUEd9rWEwHvX3II1C4eTL0fQOn4ab2GNbt5UhW2T4VxFCDc6FxhA9F10cDRVPwwXJ1LK4nVEqhxQ5RPnsSoaCEBOLTPtQIwlQSzpGcAHN2xGQZFaTSCcn7mIx3b9EifeOQ1LCDx3eDeePbxLyRjJjMHufjy44U60FUoKZpoN3iR+0FCJVDluqgyOx4KyTKmDpHIriK0WiXJWPpulSRPRwHQDDYmledYSFu4fvQPL+hZp23nl+AH84vWXq2MgTFdm8IOdT+Ht82eUYyIAd6+6AdcvWRW5UTWYNx5DI4mhBuW64IDBTMlUUZ5v0Cib6SCj5vbw6DvFyjBnV1SFDJEssXb+MO5edaPyUAiBMDkzhe/tfBLnLl6ICErVINDP9v1K46IFussd+PCme9BVbp+1DGaj2Q/WCEVajWfloQ+zvtWhnqR+EKNikzmBdQTAwGZuEGxhDo5H3Td6Bxb3zNcGfJ46+CJePr4/U17xXDy++xm8fvq4UngA4Kbhtdiy4vrYsmlC6hRBleWGFIwxymQ2x4sbd2GQI0CqajX/RSNQUFUbvjOG+EUwGwdXYvPIderOSeCtc6fx4z3bA604liQZDuDQ+Als2/scpt1KdiYxo7PYhgc3bMaCzj6tgIV1k+TR462mCMf+j3n/YhTjRN1sa1FeP6reRc0/mWhX9S++p6uWffMVobEZaLD3Z8kVQGepDR/aeCf62ruU7fjs46mDL2LXiddruYGpalJKbNu7A1tGrsPGxSsyM1OyxIbBFXjPqpvxzRe3xb6fLQM28N/bViE7bq65hDKWOwNF24nGFWdIwXJQdAopJnGtScUIWPHbElb18KlaEZylewLVCCXKY0SP19k8sgm3LF0XmSxJ3jCOTozhh68+Ddf39BE2IoxNTuC7O5/AivlLlM4hx7Lx0KY78cyhnTgycVK5UiiJauBBlCwxunAE71tzc/XNoWErqWQ/xZZtWzaWzxtMlDmWjd++/UM4O30+Gz0Mm0ntEcoLZqh2TRynG4EZ84Ec18TpCFcPJqen8P9e+nl0KVRHoYS2YhkdhTLKThE/ePUpHDszFguSxOmZ7PvZN3bhpWP7sGXFdRET4lgs7VuID45uxlef/l7LN2fF8ZDMGOkfxCM3vh8dxXLqIEjWN59R2lKss4WFj153N1T7u2mb8bIwUSUo171DSM+vWQgGqT8DwPZDr+K5w7uDlywKAUsIWCRgCSvK8zeJBhKAM1Pn8J2Xf46+ti50ltpgCxuOZQWnZYWFol3A+9fegu2Hd+FXR/ZGh0vyZy9nCRde3hAP7KRdwLoyFUhNuphpmyr386ydDFISq4mGQwXJZx/MXuTSTPyfqJ8lfNgOECiMzx/ei9fffhNdpXaUCyW0FYpoc4rVzyW0F8qQUibe79fqOALqxlQtUizcmdTvWhnrmzR6Plmcnd+MLPN1lpoKjI6G6b7XxuPjZwBCJOMUyblPheBKDyfPjeOtc+PVZ2P5c1F/pJz9eXMH4uWe7+NCZTp7o0c4FEqWhGUEQtEuZEzYi+5MtPKRgtPqyyIUpRQolJnIaSvRwNkGE91Bq/lqYvO1mUUgYi1z8yKo8rAKIrx4bB+2/uh/VTVuREKcTZ5F7eqYak7gJ25/CBsGR6IqM56LP/7JX2PsXPLirGw8UVUer8GwSODBjXfiw5vuqn0R8wvo8gzjkCsamHf2Q/Nsq5AXj1YEhIhwavIMxibPxBqq6gYpKyDu/0A1geUj192VSHyRLPHckT04NH6iJgCcZBYr2gz+TIQFYQkLo4tGagurSglsoBo0eGdQvnK9HKdr1fMg1hSvuYY8ghTl/TFH5/+S/I/fVM6xq17VuYJxB0480TTebrzNRPvhfxQKYfYegbS7WkfPJoNBjWd8kyxpWGpy9hB1BUw1NmMiqIM1Bucmsv1xrX4L8XwA6ucNTxbNYTBIV65jzlwJlZoQRuZhWqgyQZh8FKhF5JoTdPVlmxql0RDqHA2rj0w9ImbaUtRrJmY/J7NfW55/bFqlS3M8PE/2st7O1zmUVLTJgtE9gWbQvLt1Nv32euxMBGYW8EuvEoaTs5611PgSzJiFlNMh1NRVsbmJ0iS0OjvnGqeMcGv8G3k18/x11Yyfg2CQwf5dj0AmfeQ0I02Wf5M7AxtfuVYL0UZPxx+J+SPiTirVsMNcfuURt/ihz4S6wBmaE1MiQcSEXmlo6p1B2vqm9QyUP7O9Pxd6OcaRxKm73I4FXX3BiyhUY00JYfhXuVBCZ7EN8SVaCIGVA0tQcopVj2VSKUwmAnGc/xnaWEJgQVdfXZczGnzX1FvDTLJuzIRnbkzI2TwkKqXEzcPr8Jm7/knw5lDllE79XZ2RggTmtXcl/PVFy8F/uO+T8KSvdu8CgMJSII0/obvc0RIVc58Mql+xcb28BzVnU4nMGxkM8/rai2UM9S7I3FyqvBIoFRxIL9FEhMU987XHwhq9ijbdTyYcTOn3EQOooxg2EQxSE76eja1mXGuz30yQTPb+xh2Elz+E9/kHNKXEodF4WXxsOvNPF9JVWQDqMnU/meE0sAouQTBIp5jFaT338YPcuMbKCRSlXyUuqERMyVNG6wzLYD7zlQyNZyGxVYuGGpiEBsGgfJ67OfPiGcza3Eu8ARAR3jo3jicOvICyU6wuqeHwYxpbg/SwsCDiSfx5RTw/G0cItxK944cBeNLHm2ffNj4lPMsvjkz/nc8si7dhLkjNK3kmOBEJvPLmARw4fSyqqRyrZnVL1s/SI5ErGccjXFziOgSpy9MmpOrksY6eDaKB+TT/ViFv/MDkvP9swIznYtqvRJ3XflPEjLTiRVX8lPZ9CBklMhX81a0knKoXL68eG09W11OkqRXAaP9u0fyaLciT+6cbT3gnbxj/D5hLsc/JRN44v1TljKQFEV/C46fNIjdBejxE6nZT5TGYBKiimhp1XhrV/J5ryJmWTD8TL16r+kjcCZN4MaSqjxTl6+Fn7K5vUE+ntKbw8wH8HRMfU7Vh12u0UadKYiErPMzmz9bt26DibG0jKXgDwHYAleyuDc2xNA2kjw8q8MgLdZ6UAF5jpm+SFOPSnslUyApAxQsRpSDzparh1oljzxVcOdsInkFF/B4K8nzLyRuXCRgMYitTnhEAPxCA0yB8h0gsBbgfQA+IOpngBPfWxy53ynieGs+0uojmPKzZSvwgh4dTQMCCTzj4x9/NT/0rGDICIH0JAIdI4GMu/DZirBCCVhKJITCWM/MIE4YZGCRCX+B1oFBTAsCAaLR5XQKm5YQrxRl1qSEjAL/8wv8GAL5t67/wpY1JG/QyCC8TgCMTp2lhd898IaifGH3MPMTAJgCrQLSKCIMMlEAogsiu3qeSsmNnkaCzpES+m0FrBWzf+n+iz6NbH8ZdpU2odHtMoDECxghAd0cX3ho/9W2nUCgKEkUpMcgs1xFjDRGtBmEYjPkMzIPAPCISDAQrRKRKVT9fkixgXfm7c/YDLeSj3vaF38S0dFG0ncDxUH0XHpjhEeO5p76Bm+/6zT5yeSkTDRFhiBjDzLwKwCoIGgLQAYIAETEhJRgBxJMsspG6sDxezMr68cBNWvNX5yzGyhmPQtJnQTh71esAprD9i3+r/3LrPcCWzSDQBMATAF5iMNxpaZEte4QQvSSpB8CwlLgexBuIaAWAPgZ3MqGdqlsIi2q6kybz5dLBpbeCLgXMTTRw6xMAgOfxNADgjq3/HCXbxmRhxveZxwk0zgAcSb+a8vj7ls02AEf6/jCD1xPRGoZYBvASAENMWMhAH4ngnjaumqWk8pIpoNWVPO3du5rgkrw8+pmt30j8fc/Wj4OIcJamYQM+iHwmzADYA2APA3jlS9/E+j98pN+xeIgZC5l5IUlaw8zrQVgBwiCB2hhsB8eBCSyQDNUq4FJ4EH+d4IoU7JWffxgAUGSCLQKWFWBhiqVDUnaS4LKUfi9JjLLAJiJaAablIAwA6GZCFxNsCk/lUqhb6PUFaMqDmD89SlJ8FsTXdIBLAQe//O3E33d+6bdx+NxJ9IhOlwkTAODYzpuDi5ftev3wa98SLITrcUdRWCsh5AgDQwwaAeQwg4cBGoZAD4epdWnzNAbvptkPXKErQF543x/+Pt6oHELJtgEhIVjgXL8lOsfdfsnoZ8n9DF4KxhoGrwWJtQQsBKEIoCQJdujhDJMukvd80aPkX1sBrlj42Z98pfbH1nvwl6feiz91XpIAnQL4FAhoc8qYnplyPA6YzpALIbEawAZmXg1giIEBCAyAaB6o+kpgQQCDpOdhlt5Uf0XBVbECNIQHFmJkzY1whIBkAIKiFz5LCRz80+VY+vuv91qQS8kWS8E8zMwrmXklCKsZ9CT78t+A8M6Rr/z95R7NrMK7QwDqwcMPQziMof6LsCABW8BmwkX2Cja4l4EeCcywj2NE8I9eE4CrGwb/4F54JNHmOzFNgIL37xFwtQnANbgG1+AaXINrcA3enfD/Ac1MiJrIYU9BAAAAJXRFWHRkYXRlOmNyZWF0ZQAyMDE5LTAxLTA5VDA0OjA5OjU5KzA4OjAw+uuxjQAAACV0RVh0ZGF0ZTptb2RpZnkAMjAxOS0wMS0wOVQwNDowOTo1OSswODowMIu2CTEAAABDdEVYdHNvZnR3YXJlAC91c3IvbG9jYWwvaW1hZ2VtYWdpY2svc2hhcmUvZG9jL0ltYWdlTWFnaWNrLTcvL2luZGV4Lmh0bWy9tXkKAAAAGHRFWHRUaHVtYjo6RG9jdW1lbnQ6OlBhZ2VzADGn/7svAAAAGHRFWHRUaHVtYjo6SW1hZ2U6OkhlaWdodAAxNzbZs5jCAAAAF3RFWHRUaHVtYjo6SW1hZ2U6OldpZHRoADE3NkpCyJ8AAAAZdEVYdFRodW1iOjpNaW1ldHlwZQBpbWFnZS9wbmc/slZOAAAAF3RFWHRUaHVtYjo6TVRpbWUAMTU0Njk3ODE5OSVftIsAAAARdEVYdFRodW1iOjpTaXplADg2NDFCqK1o8AAAAGJ0RVh0VGh1bWI6OlVSSQBmaWxlOi8vL2hvbWUvd3d3cm9vdC9uZXdzaXRlL3d3dy5lYXN5aWNvbi5uZXQvY2RuLWltZy5lYXN5aWNvbi5jbi9maWxlcy8xMjEvMTIxMjk2NC5wbmc1Ct+OAAAAAElFTkSuQmCC;" parent="1" vertex="1">
          <mxGeometry x="22.5" y="472.5" width="78" height="78" as="geometry"/>
        </mxCell>
        <mxCell id="ZRHdMksBV3v8EwZyY3YF-8" value="u&lt;sub&gt;1&lt;/sub&gt;" style="html=1;verticalLabelPosition=bottom;align=center;labelBackgroundColor=#ffffff;verticalAlign=top;strokeWidth=2;strokeColor=#82b366;fillColor=#d5e8d4;shadow=0;dashed=0;shape=mxgraph.ios7.icons.user;" parent="1" vertex="1">
          <mxGeometry x="499.5" y="206" width="30" height="30" as="geometry"/>
        </mxCell>
        <mxCell id="ZRHdMksBV3v8EwZyY3YF-10" value="u&lt;sub&gt;2&lt;/sub&gt;" style="html=1;verticalLabelPosition=bottom;align=center;labelBackgroundColor=#ffffff;verticalAlign=top;strokeWidth=2;strokeColor=#82b366;fillColor=#d5e8d4;shadow=0;dashed=0;shape=mxgraph.ios7.icons.user;" parent="1" vertex="1">
          <mxGeometry x="539.5" y="206" width="30" height="30" as="geometry"/>
        </mxCell>
        <mxCell id="ZRHdMksBV3v8EwZyY3YF-11" value="u&lt;sub&gt;n&lt;/sub&gt;" style="html=1;verticalLabelPosition=bottom;align=center;labelBackgroundColor=#ffffff;verticalAlign=top;strokeWidth=2;strokeColor=#82b366;fillColor=#d5e8d4;shadow=0;dashed=0;shape=mxgraph.ios7.icons.user;" parent="1" vertex="1">
          <mxGeometry x="614.5" y="206" width="30" height="30" as="geometry"/>
        </mxCell>
        <mxCell id="ZRHdMksBV3v8EwZyY3YF-14" value="..." style="text;html=1;align=center;verticalAlign=middle;whiteSpace=wrap;rounded=0;fontSize=23;" parent="1" vertex="1">
          <mxGeometry x="572" y="208" width="40" height="28" as="geometry"/>
        </mxCell>
        <mxCell id="ZRHdMksBV3v8EwZyY3YF-17" value="" style="shape=curlyBracket;whiteSpace=wrap;html=1;rounded=1;fontSize=23;rotation=-180;" parent="1" vertex="1">
          <mxGeometry x="847.5" y="202" width="20" height="51" as="geometry"/>
        </mxCell>
        <mxCell id="ZRHdMksBV3v8EwZyY3YF-18" value="" style="shape=curlyBracket;whiteSpace=wrap;html=1;rounded=1;fontSize=23;rotation=0;" parent="1" vertex="1">
          <mxGeometry x="463.5" y="202" width="20" height="51" as="geometry"/>
        </mxCell>
        <mxCell id="ZRHdMksBV3v8EwZyY3YF-19" value="" style="ellipse;whiteSpace=wrap;html=1;aspect=fixed;fontSize=23;fillColor=#f8cecc;strokeColor=#b85450;strokeWidth=2;" parent="1" vertex="1">
          <mxGeometry x="674.5" y="206.5" width="30" height="30" as="geometry"/>
        </mxCell>
        <mxCell id="ZRHdMksBV3v8EwZyY3YF-20" value="v&lt;sub&gt;1&lt;/sub&gt;" style="text;html=1;strokeColor=none;fillColor=none;align=center;verticalAlign=middle;whiteSpace=wrap;rounded=0;fontSize=12;" parent="1" vertex="1">
          <mxGeometry x="660.5" y="243" width="55" height="20" as="geometry"/>
        </mxCell>
        <mxCell id="ZRHdMksBV3v8EwZyY3YF-21" value="" style="ellipse;whiteSpace=wrap;html=1;aspect=fixed;fontSize=23;fillColor=#f8cecc;strokeColor=#b85450;strokeWidth=2;" parent="1" vertex="1">
          <mxGeometry x="728.5" y="205" width="30" height="30" as="geometry"/>
        </mxCell>
        <mxCell id="ZRHdMksBV3v8EwZyY3YF-22" value="v&lt;sub&gt;2&lt;/sub&gt;" style="text;html=1;strokeColor=none;fillColor=none;align=center;verticalAlign=middle;whiteSpace=wrap;rounded=0;fontSize=12;" parent="1" vertex="1">
          <mxGeometry x="717" y="243" width="55" height="20" as="geometry"/>
        </mxCell>
        <mxCell id="ZRHdMksBV3v8EwZyY3YF-24" value="" style="ellipse;whiteSpace=wrap;html=1;aspect=fixed;fontSize=23;fillColor=#f8cecc;strokeColor=#b85450;strokeWidth=2;" parent="1" vertex="1">
          <mxGeometry x="792.5" y="205.5" width="30" height="30" as="geometry"/>
        </mxCell>
        <mxCell id="ZRHdMksBV3v8EwZyY3YF-25" value="v&lt;sub&gt;n&lt;/sub&gt;" style="text;html=1;strokeColor=none;fillColor=none;align=center;verticalAlign=middle;whiteSpace=wrap;rounded=0;fontSize=12;" parent="1" vertex="1">
          <mxGeometry x="780.5" y="243" width="55" height="20" as="geometry"/>
        </mxCell>
        <mxCell id="ZRHdMksBV3v8EwZyY3YF-26" value="..." style="text;html=1;align=center;verticalAlign=middle;whiteSpace=wrap;rounded=0;fontSize=23;" parent="1" vertex="1">
          <mxGeometry x="757" y="206" width="40" height="28" as="geometry"/>
        </mxCell>
        <mxCell id="ZRHdMksBV3v8EwZyY3YF-40" value="加入不允许重复元素的数组S" style="text;html=1;strokeColor=none;fillColor=none;align=center;verticalAlign=middle;whiteSpace=wrap;rounded=0;fontSize=12;" parent="1" vertex="1">
          <mxGeometry x="440.5" y="124.5" width="102" height="44" as="geometry"/>
        </mxCell>
        <mxCell id="ZRHdMksBV3v8EwZyY3YF-74" value="" style="strokeWidth=2;html=1;shape=mxgraph.flowchart.annotation_1;align=left;pointerEvents=1;labelBackgroundColor=#ffffff;fillColor=#007FFF;fontSize=12;fontColor=#000000;" parent="1" vertex="1">
          <mxGeometry x="702" y="415" width="20" height="70" as="geometry"/>
        </mxCell>
        <mxCell id="ZRHdMksBV3v8EwZyY3YF-77" value="u&lt;sub&gt;1&lt;/sub&gt;" style="text;html=1;fontSize=12;fontColor=#000000;" parent="1" vertex="1">
          <mxGeometry x="702" y="390" width="20" height="25" as="geometry"/>
        </mxCell>
        <mxCell id="ZRHdMksBV3v8EwZyY3YF-79" value="&amp;nbsp;..." style="text;html=1;fontSize=12;fontColor=#000000;" parent="1" vertex="1">
          <mxGeometry x="722" y="390" width="20" height="25" as="geometry"/>
        </mxCell>
        <mxCell id="ZRHdMksBV3v8EwZyY3YF-80" value="u&lt;span style=&quot;font-size: 10px&quot;&gt;&lt;sub&gt;n&lt;/sub&gt;&lt;/span&gt;" style="text;html=1;fontSize=12;fontColor=#000000;" parent="1" vertex="1">
          <mxGeometry x="742" y="390" width="20" height="25" as="geometry"/>
        </mxCell>
        <mxCell id="ZRHdMksBV3v8EwZyY3YF-81" value="v&lt;sub&gt;1&lt;/sub&gt;" style="text;html=1;fontSize=12;fontColor=#000000;" parent="1" vertex="1">
          <mxGeometry x="762" y="390" width="20" height="25" as="geometry"/>
        </mxCell>
        <mxCell id="ZRHdMksBV3v8EwZyY3YF-82" value="&amp;nbsp;..." style="text;html=1;fontSize=12;fontColor=#000000;" parent="1" vertex="1">
          <mxGeometry x="782" y="390" width="20" height="25" as="geometry"/>
        </mxCell>
        <mxCell id="ZRHdMksBV3v8EwZyY3YF-84" value="u&lt;span style=&quot;font-size: 10px&quot;&gt;&lt;sub&gt;n&lt;/sub&gt;&lt;/span&gt;" style="text;html=1;fontSize=12;fontColor=#000000;" parent="1" vertex="1">
          <mxGeometry x="802" y="390" width="20" height="25" as="geometry"/>
        </mxCell>
        <mxCell id="ZRHdMksBV3v8EwZyY3YF-85" value="u&lt;sub&gt;1&lt;/sub&gt;" style="text;html=1;fontSize=12;fontColor=#000000;" parent="1" vertex="1">
          <mxGeometry x="682" y="398.5" width="20" height="25" as="geometry"/>
        </mxCell>
        <mxCell id="ZRHdMksBV3v8EwZyY3YF-86" value="&amp;nbsp;..." style="text;html=1;fontSize=12;fontColor=#000000;rotation=90;" parent="1" vertex="1">
          <mxGeometry x="683.5" y="412" width="20" height="25" as="geometry"/>
        </mxCell>
        <mxCell id="ZRHdMksBV3v8EwZyY3YF-87" value="u&lt;span style=&quot;font-size: 10px&quot;&gt;&lt;sub&gt;n&lt;/sub&gt;&lt;/span&gt;" style="text;html=1;fontSize=12;fontColor=#000000;" parent="1" vertex="1">
          <mxGeometry x="682" y="421.5" width="20" height="25" as="geometry"/>
        </mxCell>
        <mxCell id="ZRHdMksBV3v8EwZyY3YF-88" value="v&lt;sub&gt;1&lt;/sub&gt;" style="text;html=1;fontSize=12;fontColor=#000000;" parent="1" vertex="1">
          <mxGeometry x="682" y="436" width="20" height="25" as="geometry"/>
        </mxCell>
        <mxCell id="ZRHdMksBV3v8EwZyY3YF-89" value="&amp;nbsp;..." style="text;html=1;fontSize=12;fontColor=#000000;rotation=90;" parent="1" vertex="1">
          <mxGeometry x="683.5" y="453" width="20" height="25" as="geometry"/>
        </mxCell>
        <mxCell id="ZRHdMksBV3v8EwZyY3YF-90" value="u&lt;span style=&quot;font-size: 10px&quot;&gt;&lt;sub&gt;n&lt;/sub&gt;&lt;/span&gt;" style="text;html=1;fontSize=12;fontColor=#000000;" parent="1" vertex="1">
          <mxGeometry x="682" y="465.5" width="20" height="25" as="geometry"/>
        </mxCell>
        <mxCell id="ZRHdMksBV3v8EwZyY3YF-93" value="" style="strokeWidth=2;html=1;shape=mxgraph.flowchart.annotation_1;align=left;pointerEvents=1;labelBackgroundColor=#ffffff;fillColor=#007FFF;fontSize=12;fontColor=#000000;rotation=-179;" parent="1" vertex="1">
          <mxGeometry x="802" y="414.5" width="20" height="70" as="geometry"/>
        </mxCell>
        <mxCell id="ZRHdMksBV3v8EwZyY3YF-94" value="0" style="text;html=1;fontSize=12;fontColor=#000000;" parent="1" vertex="1">
          <mxGeometry x="702" y="411" width="20" height="25" as="geometry"/>
        </mxCell>
        <mxCell id="ZRHdMksBV3v8EwZyY3YF-99" value="0" style="text;html=1;fontSize=12;fontColor=#000000;" parent="1" vertex="1">
          <mxGeometry x="802" y="411" width="20" height="25" as="geometry"/>
        </mxCell>
        <mxCell id="ZRHdMksBV3v8EwZyY3YF-101" value="0" style="text;html=1;fontSize=12;fontColor=#000000;" parent="1" vertex="1">
          <mxGeometry x="702" y="460" width="20" height="25" as="geometry"/>
        </mxCell>
        <mxCell id="ZRHdMksBV3v8EwZyY3YF-102" value="&amp;nbsp;........." style="text;html=1;fontSize=12;fontColor=#000000;" parent="1" vertex="1">
          <mxGeometry x="742" y="458" width="20" height="25" as="geometry"/>
        </mxCell>
        <mxCell id="ZRHdMksBV3v8EwZyY3YF-103" value="0" style="text;html=1;fontSize=12;fontColor=#000000;" parent="1" vertex="1">
          <mxGeometry x="802" y="460" width="20" height="25" as="geometry"/>
        </mxCell>
        <mxCell id="ZRHdMksBV3v8EwZyY3YF-104" value="&amp;nbsp;............" style="text;html=1;fontSize=12;fontColor=#000000;rotation=30;" parent="1" vertex="1">
          <mxGeometry x="742" y="424" width="20" height="25" as="geometry"/>
        </mxCell>
        <mxCell id="ZRHdMksBV3v8EwZyY3YF-106" value="&amp;nbsp;........." style="text;html=1;fontSize=12;fontColor=#000000;" parent="1" vertex="1">
          <mxGeometry x="742" y="405.5" width="20" height="25" as="geometry"/>
        </mxCell>
        <mxCell id="ZRHdMksBV3v8EwZyY3YF-107" value="加入不允许重复元素的数组S" style="text;html=1;strokeColor=none;fillColor=none;align=center;verticalAlign=middle;whiteSpace=wrap;rounded=0;fontSize=12;" parent="1" vertex="1">
          <mxGeometry x="401" y="278.5" width="87" height="21" as="geometry"/>
        </mxCell>
        <mxCell id="ZRHdMksBV3v8EwZyY3YF-108" value="初始邻接矩阵" style="text;html=1;strokeColor=none;fillColor=none;align=center;verticalAlign=middle;whiteSpace=wrap;rounded=0;fontSize=12;" parent="1" vertex="1">
          <mxGeometry x="710.5" y="367.5" width="87" height="21" as="geometry"/>
        </mxCell>
        <mxCell id="ZRHdMksBV3v8EwZyY3YF-111" value="生成初始&lt;br&gt;邻接矩阵" style="text;html=1;strokeColor=none;fillColor=none;align=center;verticalAlign=middle;whiteSpace=wrap;rounded=0;fontSize=12;" parent="1" vertex="1">
          <mxGeometry x="783.5" y="313.5" width="87" height="21" as="geometry"/>
        </mxCell>
        <mxCell id="ZRHdMksBV3v8EwZyY3YF-116" style="rounded=0;orthogonalLoop=1;jettySize=auto;html=1;exitX=0.5;exitY=0;exitDx=0;exitDy=0;exitPerimeter=0;entryX=0.5;entryY=1.027;entryDx=0;entryDy=0;entryPerimeter=0;endArrow=none;endFill=0;startArrow=classic;startFill=1;" parent="1" source="ZRHdMksBV3v8EwZyY3YF-122" target="ZRHdMksBV3v8EwZyY3YF-121" edge="1">
          <mxGeometry relative="1" as="geometry"/>
        </mxCell>
        <mxCell id="ZRHdMksBV3v8EwZyY3YF-117" style="rounded=0;orthogonalLoop=1;jettySize=auto;html=1;exitX=0.509;exitY=1.007;exitDx=0;exitDy=0;exitPerimeter=0;entryX=0.5;entryY=0;entryDx=0;entryDy=0;entryPerimeter=0;endArrow=classic;endFill=1;" parent="1" source="ZRHdMksBV3v8EwZyY3YF-121" target="ZRHdMksBV3v8EwZyY3YF-123" edge="1">
          <mxGeometry relative="1" as="geometry">
            <mxPoint x="486.5" y="450.5" as="sourcePoint"/>
            <mxPoint x="501.5" y="426.30999999999995" as="targetPoint"/>
          </mxGeometry>
        </mxCell>
        <mxCell id="ZRHdMksBV3v8EwZyY3YF-118" style="rounded=0;orthogonalLoop=1;jettySize=auto;html=1;exitX=0.5;exitY=0;exitDx=0;exitDy=0;exitPerimeter=0;entryX=0.5;entryY=1.027;entryDx=0;entryDy=0;entryPerimeter=0;endArrow=none;endFill=0;startArrow=classic;startFill=1;" parent="1" source="ZRHdMksBV3v8EwZyY3YF-125" target="ZRHdMksBV3v8EwZyY3YF-124" edge="1">
          <mxGeometry relative="1" as="geometry"/>
        </mxCell>
        <mxCell id="ZRHdMksBV3v8EwZyY3YF-119" style="rounded=0;orthogonalLoop=1;jettySize=auto;html=1;exitX=0.509;exitY=1.007;exitDx=0;exitDy=0;exitPerimeter=0;entryX=0.5;entryY=0;entryDx=0;entryDy=0;entryPerimeter=0;endArrow=classic;endFill=1;" parent="1" source="ZRHdMksBV3v8EwZyY3YF-124" target="ZRHdMksBV3v8EwZyY3YF-126" edge="1">
          <mxGeometry relative="1" as="geometry">
            <mxPoint x="556.5" y="450.5" as="sourcePoint"/>
            <mxPoint x="571.5" y="426.30999999999995" as="targetPoint"/>
          </mxGeometry>
        </mxCell>
        <mxCell id="ZRHdMksBV3v8EwZyY3YF-120" style="rounded=0;orthogonalLoop=1;jettySize=auto;html=1;entryX=0.5;entryY=0;entryDx=0;entryDy=0;entryPerimeter=0;endArrow=classic;endFill=1;" parent="1" target="ZRHdMksBV3v8EwZyY3YF-127" edge="1">
          <mxGeometry relative="1" as="geometry">
            <mxPoint x="576.5" y="415.5" as="sourcePoint"/>
            <mxPoint x="596" y="426.30999999999995" as="targetPoint"/>
          </mxGeometry>
        </mxCell>
        <mxCell id="ZRHdMksBV3v8EwZyY3YF-121" value="" style="html=1;verticalLabelPosition=bottom;align=center;labelBackgroundColor=#ffffff;verticalAlign=top;strokeWidth=2;strokeColor=#990000;fillColor=#ffffff;shadow=0;dashed=0;shape=mxgraph.ios7.icons.user;" parent="1" vertex="1">
          <mxGeometry x="476.5" y="385.5" width="30" height="30" as="geometry"/>
        </mxCell>
        <mxCell id="ZRHdMksBV3v8EwZyY3YF-122" value="" style="verticalLabelPosition=bottom;html=1;verticalAlign=top;align=center;strokeColor=none;fillColor=#00BEF2;shape=mxgraph.azure.computer;pointerEvents=1;" parent="1" vertex="1">
          <mxGeometry x="466.5" y="440.5" width="20" height="17" as="geometry"/>
        </mxCell>
        <mxCell id="ZRHdMksBV3v8EwZyY3YF-123" value="" style="verticalLabelPosition=bottom;html=1;verticalAlign=top;align=center;strokeColor=none;fillColor=#00BEF2;shape=mxgraph.azure.computer;pointerEvents=1;" parent="1" vertex="1">
          <mxGeometry x="496.5" y="440.5" width="20" height="17" as="geometry"/>
        </mxCell>
        <mxCell id="ZRHdMksBV3v8EwZyY3YF-124" value="" style="html=1;verticalLabelPosition=bottom;align=center;labelBackgroundColor=#ffffff;verticalAlign=top;strokeWidth=2;strokeColor=#990000;fillColor=#ffffff;shadow=0;dashed=0;shape=mxgraph.ios7.icons.user;" parent="1" vertex="1">
          <mxGeometry x="561" y="385.5" width="30" height="30" as="geometry"/>
        </mxCell>
        <mxCell id="ZRHdMksBV3v8EwZyY3YF-125" value="" style="verticalLabelPosition=bottom;html=1;verticalAlign=top;align=center;strokeColor=none;fillColor=#00BEF2;shape=mxgraph.azure.computer;pointerEvents=1;" parent="1" vertex="1">
          <mxGeometry x="536.5" y="440.5" width="20" height="17" as="geometry"/>
        </mxCell>
        <mxCell id="ZRHdMksBV3v8EwZyY3YF-126" value="" style="verticalLabelPosition=bottom;html=1;verticalAlign=top;align=center;strokeColor=none;fillColor=#00BEF2;shape=mxgraph.azure.computer;pointerEvents=1;" parent="1" vertex="1">
          <mxGeometry x="566.5" y="440.5" width="20" height="17" as="geometry"/>
        </mxCell>
        <mxCell id="ZRHdMksBV3v8EwZyY3YF-127" value="" style="verticalLabelPosition=bottom;html=1;verticalAlign=top;align=center;strokeColor=none;fillColor=#00BEF2;shape=mxgraph.azure.computer;pointerEvents=1;" parent="1" vertex="1">
          <mxGeometry x="591" y="440.5" width="20" height="17" as="geometry"/>
        </mxCell>
        <mxCell id="ZRHdMksBV3v8EwZyY3YF-128" style="edgeStyle=none;rounded=0;orthogonalLoop=1;jettySize=auto;html=1;exitX=0.5;exitY=1;exitDx=0;exitDy=0;exitPerimeter=0;entryX=0.672;entryY=0.027;entryDx=0;entryDy=0;entryPerimeter=0;endArrow=classic;endFill=1;" parent="1" source="ZRHdMksBV3v8EwZyY3YF-130" target="ZRHdMksBV3v8EwZyY3YF-131" edge="1">
          <mxGeometry relative="1" as="geometry"/>
        </mxCell>
        <mxCell id="ZRHdMksBV3v8EwZyY3YF-129" style="edgeStyle=none;rounded=0;orthogonalLoop=1;jettySize=auto;html=1;exitX=0.5;exitY=1;exitDx=0;exitDy=0;exitPerimeter=0;entryX=0.346;entryY=0.027;entryDx=0;entryDy=0;entryPerimeter=0;endArrow=classic;endFill=1;" parent="1" source="ZRHdMksBV3v8EwZyY3YF-130" target="ZRHdMksBV3v8EwZyY3YF-132" edge="1">
          <mxGeometry relative="1" as="geometry"/>
        </mxCell>
        <mxCell id="ZRHdMksBV3v8EwZyY3YF-130" value="" style="verticalLabelPosition=bottom;html=1;verticalAlign=top;align=center;strokeColor=none;fillColor=#00BEF2;shape=mxgraph.azure.computer;pointerEvents=1;" parent="1" vertex="1">
          <mxGeometry x="536" y="440.5" width="20" height="17" as="geometry"/>
        </mxCell>
        <mxCell id="ZRHdMksBV3v8EwZyY3YF-131" value="" style="html=1;verticalLabelPosition=bottom;align=center;labelBackgroundColor=#ffffff;verticalAlign=top;strokeWidth=2;strokeColor=#0080F0;fillColor=#ffffff;shadow=0;dashed=0;shape=mxgraph.ios7.icons.user;" parent="1" vertex="1">
          <mxGeometry x="506" y="476" width="30" height="30" as="geometry"/>
        </mxCell>
        <mxCell id="ZRHdMksBV3v8EwZyY3YF-132" value="" style="html=1;verticalLabelPosition=bottom;align=center;labelBackgroundColor=#ffffff;verticalAlign=top;strokeWidth=2;strokeColor=#0080F0;fillColor=#ffffff;shadow=0;dashed=0;shape=mxgraph.ios7.icons.user;" parent="1" vertex="1">
          <mxGeometry x="556" y="476" width="30" height="30" as="geometry"/>
        </mxCell>
        <mxCell id="ZRHdMksBV3v8EwZyY3YF-133" style="edgeStyle=none;rounded=0;orthogonalLoop=1;jettySize=auto;html=1;exitX=0.5;exitY=1;exitDx=0;exitDy=0;exitPerimeter=0;endArrow=classic;endFill=1;" parent="1" source="ZRHdMksBV3v8EwZyY3YF-134" target="ZRHdMksBV3v8EwZyY3YF-135" edge="1">
          <mxGeometry relative="1" as="geometry"/>
        </mxCell>
        <mxCell id="ZRHdMksBV3v8EwZyY3YF-134" value="" style="verticalLabelPosition=bottom;html=1;verticalAlign=top;align=center;strokeColor=none;fillColor=#00BEF2;shape=mxgraph.azure.computer;pointerEvents=1;" parent="1" vertex="1">
          <mxGeometry x="466" y="440.5" width="20" height="17" as="geometry"/>
        </mxCell>
        <mxCell id="ZRHdMksBV3v8EwZyY3YF-135" value="" style="html=1;verticalLabelPosition=bottom;align=center;labelBackgroundColor=#ffffff;verticalAlign=top;strokeWidth=2;strokeColor=#0080F0;fillColor=#ffffff;shadow=0;dashed=0;shape=mxgraph.ios7.icons.user;" parent="1" vertex="1">
          <mxGeometry x="456" y="476" width="30" height="30" as="geometry"/>
        </mxCell>
        <mxCell id="ZRHdMksBV3v8EwZyY3YF-139" value="" style="endArrow=classic;html=1;strokeColor=#000000;fontSize=17;fontColor=#000000;entryX=0.5;entryY=0;entryDx=0;entryDy=0;" parent="1" target="CuCtxhXRio4zk_e6Cdl8-16" edge="1">
          <mxGeometry width="50" height="50" relative="1" as="geometry">
            <mxPoint x="762" y="490" as="sourcePoint"/>
            <mxPoint x="760" y="450" as="targetPoint"/>
          </mxGeometry>
        </mxCell>
        <mxCell id="ZRHdMksBV3v8EwZyY3YF-144" style="edgeStyle=orthogonalEdgeStyle;rounded=0;orthogonalLoop=1;jettySize=auto;html=1;exitX=1;exitY=0.5;exitDx=0;exitDy=0;entryX=0.5;entryY=1;entryDx=0;entryDy=0;startArrow=none;startFill=0;endArrow=classic;endFill=1;strokeColor=#000000;fontSize=17;fontColor=#000000;" parent="1" source="ZRHdMksBV3v8EwZyY3YF-142" target="ZRHdMksBV3v8EwZyY3YF-41" edge="1">
          <mxGeometry relative="1" as="geometry"/>
        </mxCell>
        <mxCell id="ZRHdMksBV3v8EwZyY3YF-142" value="对每个分析维度" style="rounded=0;whiteSpace=wrap;html=1;fillColor=#f8cecc;strokeColor=#b85450;" parent="1" vertex="1">
          <mxGeometry x="279.5" y="294" width="110" height="30" as="geometry"/>
        </mxCell>
        <mxCell id="ZRHdMksBV3v8EwZyY3YF-150" value="导出大户名单" style="text;html=1;fontSize=17;fontColor=#000000;" parent="1" vertex="1">
          <mxGeometry x="120" y="478" width="130" height="40" as="geometry"/>
        </mxCell>
      </root>
    </mxGraphModel>
  </diagram>
  <diagram id="HkLab05c3B0aFhE1GghW" name="Page-2">
    <mxGraphModel dx="1635" dy="812" grid="1" gridSize="10" guides="1" tooltips="1" connect="1" arrows="1" fold="1" page="1" pageScale="1" pageWidth="827" pageHeight="1169" math="0" shadow="0">
      <root>
        <mxCell id="q15bHHOJwb6plhw7r9XP-0"/>
        <mxCell id="q15bHHOJwb6plhw7r9XP-1" parent="q15bHHOJwb6plhw7r9XP-0"/>
        <mxCell id="prTNOQnYvtRhG4FND6fn-0" style="edgeStyle=orthogonalEdgeStyle;rounded=0;orthogonalLoop=1;jettySize=auto;html=1;exitX=0.5;exitY=1;exitDx=0;exitDy=0;entryX=0.5;entryY=0;entryDx=0;entryDy=0;endArrow=none;endFill=0;fontSize=16;" parent="q15bHHOJwb6plhw7r9XP-1" source="q15bHHOJwb6plhw7r9XP-7" target="lJZ664qMaKWTh30dhIbK-0" edge="1">
          <mxGeometry relative="1" as="geometry"/>
        </mxCell>
        <mxCell id="prTNOQnYvtRhG4FND6fn-1" style="edgeStyle=orthogonalEdgeStyle;rounded=0;orthogonalLoop=1;jettySize=auto;html=1;exitX=0.5;exitY=1;exitDx=0;exitDy=0;entryX=0.5;entryY=0;entryDx=0;entryDy=0;endArrow=none;endFill=0;fontSize=16;" parent="q15bHHOJwb6plhw7r9XP-1" source="q15bHHOJwb6plhw7r9XP-7" target="q15bHHOJwb6plhw7r9XP-13" edge="1">
          <mxGeometry relative="1" as="geometry"/>
        </mxCell>
        <mxCell id="prTNOQnYvtRhG4FND6fn-2" style="edgeStyle=orthogonalEdgeStyle;rounded=0;orthogonalLoop=1;jettySize=auto;html=1;exitX=0.5;exitY=1;exitDx=0;exitDy=0;entryX=0.5;entryY=0;entryDx=0;entryDy=0;endArrow=none;endFill=0;fontSize=16;" parent="q15bHHOJwb6plhw7r9XP-1" source="q15bHHOJwb6plhw7r9XP-7" target="lJZ664qMaKWTh30dhIbK-15" edge="1">
          <mxGeometry relative="1" as="geometry"/>
        </mxCell>
        <mxCell id="prTNOQnYvtRhG4FND6fn-3" style="edgeStyle=orthogonalEdgeStyle;rounded=0;orthogonalLoop=1;jettySize=auto;html=1;exitX=0.5;exitY=1;exitDx=0;exitDy=0;entryX=0.5;entryY=0;entryDx=0;entryDy=0;endArrow=none;endFill=0;fontSize=16;" parent="q15bHHOJwb6plhw7r9XP-1" source="q15bHHOJwb6plhw7r9XP-7" target="q15bHHOJwb6plhw7r9XP-15" edge="1">
          <mxGeometry relative="1" as="geometry"/>
        </mxCell>
        <mxCell id="q15bHHOJwb6plhw7r9XP-7" value="数据输入输出模块" style="rounded=0;whiteSpace=wrap;html=1;fillColor=#d5e8d4;fontSize=16;strokeColor=#82b366;" parent="q15bHHOJwb6plhw7r9XP-1" vertex="1">
          <mxGeometry x="80" y="200" width="600" height="60" as="geometry"/>
        </mxCell>
        <mxCell id="lJZ664qMaKWTh30dhIbK-26" style="edgeStyle=orthogonalEdgeStyle;rounded=0;orthogonalLoop=1;jettySize=auto;html=1;exitX=0.5;exitY=1;exitDx=0;exitDy=0;entryX=0.5;entryY=0;entryDx=0;entryDy=0;endArrow=none;endFill=0;fontSize=16;" parent="q15bHHOJwb6plhw7r9XP-1" source="q15bHHOJwb6plhw7r9XP-13" target="lJZ664qMaKWTh30dhIbK-14" edge="1">
          <mxGeometry relative="1" as="geometry"/>
        </mxCell>
        <mxCell id="q15bHHOJwb6plhw7r9XP-13" value="客户信息接口" style="rounded=0;whiteSpace=wrap;html=1;fillColor=#dae8fc;fontSize=16;strokeColor=#6c8ebf;" parent="q15bHHOJwb6plhw7r9XP-1" vertex="1">
          <mxGeometry x="240" y="300" width="120" height="60" as="geometry"/>
        </mxCell>
        <mxCell id="lJZ664qMaKWTh30dhIbK-1" value="客户编号" style="rounded=0;whiteSpace=wrap;html=1;fillColor=none;fontSize=16;" parent="q15bHHOJwb6plhw7r9XP-1" vertex="1">
          <mxGeometry x="250" y="470" width="20" height="130" as="geometry"/>
        </mxCell>
        <mxCell id="lJZ664qMaKWTh30dhIbK-28" style="edgeStyle=orthogonalEdgeStyle;rounded=0;orthogonalLoop=1;jettySize=auto;html=1;exitX=0.5;exitY=1;exitDx=0;exitDy=0;endArrow=none;endFill=0;fontSize=16;" parent="q15bHHOJwb6plhw7r9XP-1" source="q15bHHOJwb6plhw7r9XP-15" target="lJZ664qMaKWTh30dhIbK-22" edge="1">
          <mxGeometry relative="1" as="geometry"/>
        </mxCell>
        <mxCell id="q15bHHOJwb6plhw7r9XP-15" value="历史数据接口&amp;nbsp;&amp;nbsp;" style="rounded=0;whiteSpace=wrap;html=1;fillColor=#f5f5f5;fontSize=16;strokeColor=#666666;fontColor=#333333;" parent="q15bHHOJwb6plhw7r9XP-1" vertex="1">
          <mxGeometry x="560" y="300" width="120" height="60" as="geometry"/>
        </mxCell>
        <mxCell id="lJZ664qMaKWTh30dhIbK-25" style="edgeStyle=orthogonalEdgeStyle;rounded=0;orthogonalLoop=1;jettySize=auto;html=1;exitX=0.5;exitY=1;exitDx=0;exitDy=0;entryX=0.5;entryY=0;entryDx=0;entryDy=0;endArrow=none;endFill=0;fontSize=16;" parent="q15bHHOJwb6plhw7r9XP-1" source="lJZ664qMaKWTh30dhIbK-0" target="lJZ664qMaKWTh30dhIbK-13" edge="1">
          <mxGeometry relative="1" as="geometry"/>
        </mxCell>
        <mxCell id="lJZ664qMaKWTh30dhIbK-0" value="真烟案件接口&amp;nbsp;" style="rounded=0;whiteSpace=wrap;html=1;fillColor=#fff2cc;fontSize=16;strokeColor=#d6b656;" parent="q15bHHOJwb6plhw7r9XP-1" vertex="1">
          <mxGeometry x="80" y="300" width="120" height="60" as="geometry"/>
        </mxCell>
        <mxCell id="lJZ664qMaKWTh30dhIbK-6" value="真烟外流信息" style="rounded=0;whiteSpace=wrap;html=1;fillColor=none;fontSize=16;" parent="q15bHHOJwb6plhw7r9XP-1" vertex="1">
          <mxGeometry x="90" y="470" width="20" height="130" as="geometry"/>
        </mxCell>
        <mxCell id="lJZ664qMaKWTh30dhIbK-4" value="客户所在地" style="rounded=0;whiteSpace=wrap;html=1;fillColor=none;fontSize=16;" parent="q15bHHOJwb6plhw7r9XP-1" vertex="1">
          <mxGeometry x="290" y="470" width="20" height="130" as="geometry"/>
        </mxCell>
        <mxCell id="lJZ664qMaKWTh30dhIbK-5" value="客户名称" style="rounded=0;whiteSpace=wrap;html=1;fillColor=none;fontSize=16;" parent="q15bHHOJwb6plhw7r9XP-1" vertex="1">
          <mxGeometry x="330" y="470" width="20" height="130" as="geometry"/>
        </mxCell>
        <mxCell id="lJZ664qMaKWTh30dhIbK-8" value="违法客户地址" style="rounded=0;whiteSpace=wrap;html=1;fillColor=none;fontSize=16;" parent="q15bHHOJwb6plhw7r9XP-1" vertex="1">
          <mxGeometry x="130" y="470" width="20" height="130" as="geometry"/>
        </mxCell>
        <mxCell id="lJZ664qMaKWTh30dhIbK-11" value="违法客户名称" style="rounded=0;whiteSpace=wrap;html=1;fillColor=none;fontSize=16;" parent="q15bHHOJwb6plhw7r9XP-1" vertex="1">
          <mxGeometry x="170" y="470" width="20" height="130" as="geometry"/>
        </mxCell>
        <mxCell id="lJZ664qMaKWTh30dhIbK-30" style="edgeStyle=orthogonalEdgeStyle;rounded=0;orthogonalLoop=1;jettySize=auto;html=1;exitX=0.5;exitY=1;exitDx=0;exitDy=0;entryX=0.5;entryY=0;entryDx=0;entryDy=0;endArrow=none;endFill=0;fontSize=16;" parent="q15bHHOJwb6plhw7r9XP-1" source="lJZ664qMaKWTh30dhIbK-13" target="lJZ664qMaKWTh30dhIbK-6" edge="1">
          <mxGeometry relative="1" as="geometry"/>
        </mxCell>
        <mxCell id="lJZ664qMaKWTh30dhIbK-31" style="edgeStyle=orthogonalEdgeStyle;rounded=0;orthogonalLoop=1;jettySize=auto;html=1;exitX=0.5;exitY=1;exitDx=0;exitDy=0;entryX=0.5;entryY=0;entryDx=0;entryDy=0;endArrow=none;endFill=0;fontSize=16;" parent="q15bHHOJwb6plhw7r9XP-1" source="lJZ664qMaKWTh30dhIbK-13" target="lJZ664qMaKWTh30dhIbK-8" edge="1">
          <mxGeometry relative="1" as="geometry"/>
        </mxCell>
        <mxCell id="lJZ664qMaKWTh30dhIbK-32" style="edgeStyle=orthogonalEdgeStyle;rounded=0;orthogonalLoop=1;jettySize=auto;html=1;exitX=0.5;exitY=1;exitDx=0;exitDy=0;entryX=0.5;entryY=0;entryDx=0;entryDy=0;endArrow=none;endFill=0;fontSize=16;" parent="q15bHHOJwb6plhw7r9XP-1" source="lJZ664qMaKWTh30dhIbK-13" target="lJZ664qMaKWTh30dhIbK-11" edge="1">
          <mxGeometry relative="1" as="geometry"/>
        </mxCell>
        <mxCell id="lJZ664qMaKWTh30dhIbK-13" value="国家局内管系统&lt;br&gt;案件调查系统" style="rounded=0;whiteSpace=wrap;html=1;fillColor=none;fontSize=16;" parent="q15bHHOJwb6plhw7r9XP-1" vertex="1">
          <mxGeometry x="80" y="380" width="120" height="50" as="geometry"/>
        </mxCell>
        <mxCell id="lJZ664qMaKWTh30dhIbK-33" style="edgeStyle=orthogonalEdgeStyle;rounded=0;orthogonalLoop=1;jettySize=auto;html=1;exitX=0.5;exitY=1;exitDx=0;exitDy=0;entryX=0.5;entryY=0;entryDx=0;entryDy=0;endArrow=none;endFill=0;fontSize=16;" parent="q15bHHOJwb6plhw7r9XP-1" source="lJZ664qMaKWTh30dhIbK-14" target="lJZ664qMaKWTh30dhIbK-1" edge="1">
          <mxGeometry relative="1" as="geometry"/>
        </mxCell>
        <mxCell id="lJZ664qMaKWTh30dhIbK-34" style="edgeStyle=orthogonalEdgeStyle;rounded=0;orthogonalLoop=1;jettySize=auto;html=1;exitX=0.5;exitY=1;exitDx=0;exitDy=0;entryX=0.5;entryY=0;entryDx=0;entryDy=0;endArrow=none;endFill=0;fontSize=16;" parent="q15bHHOJwb6plhw7r9XP-1" source="lJZ664qMaKWTh30dhIbK-14" target="lJZ664qMaKWTh30dhIbK-4" edge="1">
          <mxGeometry relative="1" as="geometry"/>
        </mxCell>
        <mxCell id="lJZ664qMaKWTh30dhIbK-35" style="edgeStyle=orthogonalEdgeStyle;rounded=0;orthogonalLoop=1;jettySize=auto;html=1;exitX=0.5;exitY=1;exitDx=0;exitDy=0;entryX=0.5;entryY=0;entryDx=0;entryDy=0;endArrow=none;endFill=0;fontSize=16;" parent="q15bHHOJwb6plhw7r9XP-1" source="lJZ664qMaKWTh30dhIbK-14" target="lJZ664qMaKWTh30dhIbK-5" edge="1">
          <mxGeometry relative="1" as="geometry"/>
        </mxCell>
        <mxCell id="lJZ664qMaKWTh30dhIbK-14" value="营销系统&lt;br&gt;数据库" style="rounded=0;whiteSpace=wrap;html=1;fillColor=none;fontSize=16;" parent="q15bHHOJwb6plhw7r9XP-1" vertex="1">
          <mxGeometry x="240" y="380" width="120" height="50" as="geometry"/>
        </mxCell>
        <mxCell id="lJZ664qMaKWTh30dhIbK-27" style="edgeStyle=orthogonalEdgeStyle;rounded=0;orthogonalLoop=1;jettySize=auto;html=1;exitX=0.5;exitY=1;exitDx=0;exitDy=0;endArrow=none;endFill=0;fontSize=16;" parent="q15bHHOJwb6plhw7r9XP-1" source="lJZ664qMaKWTh30dhIbK-15" target="lJZ664qMaKWTh30dhIbK-17" edge="1">
          <mxGeometry relative="1" as="geometry"/>
        </mxCell>
        <mxCell id="lJZ664qMaKWTh30dhIbK-15" value="客户订单接口" style="rounded=0;whiteSpace=wrap;html=1;fillColor=#e1d5e7;fontSize=16;strokeColor=#9673a6;" parent="q15bHHOJwb6plhw7r9XP-1" vertex="1">
          <mxGeometry x="400" y="300" width="120" height="60" as="geometry"/>
        </mxCell>
        <mxCell id="lJZ664qMaKWTh30dhIbK-16" value="客户编号" style="rounded=0;whiteSpace=wrap;html=1;fillColor=none;fontSize=16;" parent="q15bHHOJwb6plhw7r9XP-1" vertex="1">
          <mxGeometry x="390" y="470" width="20" height="130" as="geometry"/>
        </mxCell>
        <mxCell id="lJZ664qMaKWTh30dhIbK-36" style="edgeStyle=orthogonalEdgeStyle;rounded=0;orthogonalLoop=1;jettySize=auto;html=1;exitX=0.5;exitY=1;exitDx=0;exitDy=0;entryX=0.5;entryY=0;entryDx=0;entryDy=0;endArrow=none;endFill=0;fontSize=16;" parent="q15bHHOJwb6plhw7r9XP-1" source="lJZ664qMaKWTh30dhIbK-17" target="lJZ664qMaKWTh30dhIbK-16" edge="1">
          <mxGeometry relative="1" as="geometry"/>
        </mxCell>
        <mxCell id="lJZ664qMaKWTh30dhIbK-37" style="edgeStyle=orthogonalEdgeStyle;rounded=0;orthogonalLoop=1;jettySize=auto;html=1;exitX=0.5;exitY=1;exitDx=0;exitDy=0;entryX=0.5;entryY=0;entryDx=0;entryDy=0;endArrow=none;endFill=0;fontSize=16;" parent="q15bHHOJwb6plhw7r9XP-1" source="lJZ664qMaKWTh30dhIbK-17" target="lJZ664qMaKWTh30dhIbK-18" edge="1">
          <mxGeometry relative="1" as="geometry"/>
        </mxCell>
        <mxCell id="lJZ664qMaKWTh30dhIbK-38" style="edgeStyle=orthogonalEdgeStyle;rounded=0;orthogonalLoop=1;jettySize=auto;html=1;exitX=0.5;exitY=1;exitDx=0;exitDy=0;entryX=0.5;entryY=0;entryDx=0;entryDy=0;endArrow=none;endFill=0;fontSize=16;" parent="q15bHHOJwb6plhw7r9XP-1" source="lJZ664qMaKWTh30dhIbK-17" target="lJZ664qMaKWTh30dhIbK-19" edge="1">
          <mxGeometry relative="1" as="geometry"/>
        </mxCell>
        <mxCell id="lJZ664qMaKWTh30dhIbK-39" style="edgeStyle=orthogonalEdgeStyle;rounded=0;orthogonalLoop=1;jettySize=auto;html=1;exitX=0.5;exitY=1;exitDx=0;exitDy=0;entryX=0.5;entryY=0;entryDx=0;entryDy=0;endArrow=none;endFill=0;fontSize=16;" parent="q15bHHOJwb6plhw7r9XP-1" source="lJZ664qMaKWTh30dhIbK-17" target="lJZ664qMaKWTh30dhIbK-20" edge="1">
          <mxGeometry relative="1" as="geometry"/>
        </mxCell>
        <mxCell id="lJZ664qMaKWTh30dhIbK-40" style="edgeStyle=orthogonalEdgeStyle;rounded=0;orthogonalLoop=1;jettySize=auto;html=1;exitX=0.5;exitY=1;exitDx=0;exitDy=0;entryX=0.5;entryY=0;entryDx=0;entryDy=0;endArrow=none;endFill=0;fontSize=16;" parent="q15bHHOJwb6plhw7r9XP-1" source="lJZ664qMaKWTh30dhIbK-17" target="lJZ664qMaKWTh30dhIbK-21" edge="1">
          <mxGeometry relative="1" as="geometry"/>
        </mxCell>
        <mxCell id="lJZ664qMaKWTh30dhIbK-17" value="零售客户网上&lt;br&gt;订货记录" style="rounded=0;whiteSpace=wrap;html=1;fillColor=none;fontSize=16;" parent="q15bHHOJwb6plhw7r9XP-1" vertex="1">
          <mxGeometry x="400" y="380" width="120" height="50" as="geometry"/>
        </mxCell>
        <mxCell id="lJZ664qMaKWTh30dhIbK-18" value="客户名称" style="rounded=0;whiteSpace=wrap;html=1;fillColor=none;fontSize=16;" parent="q15bHHOJwb6plhw7r9XP-1" vertex="1">
          <mxGeometry x="420" y="470" width="20" height="130" as="geometry"/>
        </mxCell>
        <mxCell id="lJZ664qMaKWTh30dhIbK-19" value="客户操作记录" style="rounded=0;whiteSpace=wrap;html=1;fillColor=none;fontSize=16;" parent="q15bHHOJwb6plhw7r9XP-1" vertex="1">
          <mxGeometry x="450" y="470" width="20" height="130" as="geometry"/>
        </mxCell>
        <mxCell id="lJZ664qMaKWTh30dhIbK-20" value="IP地址" style="rounded=0;whiteSpace=wrap;html=1;fillColor=none;fontSize=16;" parent="q15bHHOJwb6plhw7r9XP-1" vertex="1">
          <mxGeometry x="480" y="470" width="20" height="130" as="geometry"/>
        </mxCell>
        <mxCell id="lJZ664qMaKWTh30dhIbK-21" value="浏览器标识" style="rounded=0;whiteSpace=wrap;html=1;fillColor=none;fontSize=16;" parent="q15bHHOJwb6plhw7r9XP-1" vertex="1">
          <mxGeometry x="510" y="470" width="20" height="130" as="geometry"/>
        </mxCell>
        <mxCell id="lJZ664qMaKWTh30dhIbK-41" style="edgeStyle=orthogonalEdgeStyle;rounded=0;orthogonalLoop=1;jettySize=auto;html=1;exitX=0.5;exitY=1;exitDx=0;exitDy=0;entryX=0.5;entryY=0;entryDx=0;entryDy=0;endArrow=none;endFill=0;fontSize=16;" parent="q15bHHOJwb6plhw7r9XP-1" source="lJZ664qMaKWTh30dhIbK-22" target="lJZ664qMaKWTh30dhIbK-23" edge="1">
          <mxGeometry relative="1" as="geometry"/>
        </mxCell>
        <mxCell id="lJZ664qMaKWTh30dhIbK-42" style="edgeStyle=orthogonalEdgeStyle;rounded=0;orthogonalLoop=1;jettySize=auto;html=1;exitX=0.5;exitY=1;exitDx=0;exitDy=0;entryX=0.5;entryY=0;entryDx=0;entryDy=0;endArrow=none;endFill=0;fontSize=16;" parent="q15bHHOJwb6plhw7r9XP-1" source="lJZ664qMaKWTh30dhIbK-22" target="lJZ664qMaKWTh30dhIbK-24" edge="1">
          <mxGeometry relative="1" as="geometry"/>
        </mxCell>
        <mxCell id="lJZ664qMaKWTh30dhIbK-22" value="专卖系统&lt;br&gt;数据库" style="rounded=0;whiteSpace=wrap;html=1;fillColor=none;fontSize=16;" parent="q15bHHOJwb6plhw7r9XP-1" vertex="1">
          <mxGeometry x="560" y="380" width="120" height="50" as="geometry"/>
        </mxCell>
        <mxCell id="lJZ664qMaKWTh30dhIbK-23" value="外流客户数据" style="rounded=0;whiteSpace=wrap;html=1;fillColor=none;fontSize=16;" parent="q15bHHOJwb6plhw7r9XP-1" vertex="1">
          <mxGeometry x="580" y="470" width="20" height="130" as="geometry"/>
        </mxCell>
        <mxCell id="lJZ664qMaKWTh30dhIbK-24" value="外流卷烟信息" style="rounded=0;whiteSpace=wrap;html=1;fillColor=none;fontSize=16;" parent="q15bHHOJwb6plhw7r9XP-1" vertex="1">
          <mxGeometry x="640" y="470" width="20" height="130" as="geometry"/>
        </mxCell>
      </root>
    </mxGraphModel>
  </diagram>
  <diagram id="yluF98EXwR2WwRb-Cb_T" name="Page-3">
    <mxGraphModel dx="1635" dy="812" grid="1" gridSize="10" guides="1" tooltips="1" connect="1" arrows="1" fold="1" page="1" pageScale="1" pageWidth="827" pageHeight="1169" math="0" shadow="0">
      <root>
        <mxCell id="k0fXGJ8QqsJdQDp85Q2W-0"/>
        <mxCell id="k0fXGJ8QqsJdQDp85Q2W-1" parent="k0fXGJ8QqsJdQDp85Q2W-0"/>
        <mxCell id="0G07HrsRW22DFxrx_kX--0" style="edgeStyle=orthogonalEdgeStyle;rounded=0;orthogonalLoop=1;jettySize=auto;html=1;exitX=0.5;exitY=0;exitDx=0;exitDy=0;entryX=0.5;entryY=1;entryDx=0;entryDy=0;endArrow=classic;endFill=1;fontSize=16;" parent="k0fXGJ8QqsJdQDp85Q2W-1" source="0G07HrsRW22DFxrx_kX--1" target="0G07HrsRW22DFxrx_kX--6" edge="1">
          <mxGeometry relative="1" as="geometry"/>
        </mxCell>
        <mxCell id="0G07HrsRW22DFxrx_kX--1" value="单维度分析" style="rounded=0;whiteSpace=wrap;html=1;fillColor=#fff2cc;fontSize=16;strokeColor=#d6b656;" parent="k0fXGJ8QqsJdQDp85Q2W-1" vertex="1">
          <mxGeometry x="50" y="390" width="120" height="60" as="geometry"/>
        </mxCell>
        <mxCell id="0G07HrsRW22DFxrx_kX--4" value="数据导出模块" style="rounded=0;whiteSpace=wrap;html=1;fillColor=#f8cecc;fontSize=16;strokeColor=#b85450;" parent="k0fXGJ8QqsJdQDp85Q2W-1" vertex="1">
          <mxGeometry x="100" y="190" width="120" height="60" as="geometry"/>
        </mxCell>
        <mxCell id="TeTEu9oZF60Oxjfr8nSh-11" style="edgeStyle=orthogonalEdgeStyle;rounded=0;orthogonalLoop=1;jettySize=auto;html=1;exitX=0.5;exitY=0;exitDx=0;exitDy=0;entryX=0.5;entryY=1;entryDx=0;entryDy=0;endArrow=classic;endFill=1;fontSize=16;fillColor=#e1d5e7;strokeColor=#9673a6;" parent="k0fXGJ8QqsJdQDp85Q2W-1" source="0G07HrsRW22DFxrx_kX--6" target="TeTEu9oZF60Oxjfr8nSh-10" edge="1">
          <mxGeometry relative="1" as="geometry">
            <Array as="points">
              <mxPoint x="260" y="290"/>
              <mxPoint x="260" y="270"/>
              <mxPoint x="310" y="270"/>
            </Array>
          </mxGeometry>
        </mxCell>
        <mxCell id="LPBEPP05KuoZcdavdCfs-1" style="edgeStyle=orthogonalEdgeStyle;rounded=0;orthogonalLoop=1;jettySize=auto;html=1;exitX=0.5;exitY=0;exitDx=0;exitDy=0;entryX=0.5;entryY=1;entryDx=0;entryDy=0;fillColor=#f8cecc;strokeColor=#b85450;" parent="k0fXGJ8QqsJdQDp85Q2W-1" source="0G07HrsRW22DFxrx_kX--6" edge="1">
          <mxGeometry relative="1" as="geometry">
            <mxPoint x="160.28571428571422" y="250.1428571428571" as="targetPoint"/>
            <Array as="points">
              <mxPoint x="220" y="290"/>
              <mxPoint x="220" y="270"/>
              <mxPoint x="160" y="270"/>
            </Array>
          </mxGeometry>
        </mxCell>
        <mxCell id="0G07HrsRW22DFxrx_kX--6" value="多维度分析&lt;br&gt;模块" style="rounded=0;whiteSpace=wrap;html=1;fillColor=#ffe6cc;fontSize=16;strokeColor=#d79b00;" parent="k0fXGJ8QqsJdQDp85Q2W-1" vertex="1">
          <mxGeometry x="180" y="290" width="120" height="60" as="geometry"/>
        </mxCell>
        <mxCell id="DZ5-jk7WHEXx7sqBzxrz-0" style="edgeStyle=orthogonalEdgeStyle;rounded=0;orthogonalLoop=1;jettySize=auto;html=1;exitX=0.5;exitY=0;exitDx=0;exitDy=0;entryX=0.5;entryY=1;entryDx=0;entryDy=0;endArrow=classic;endFill=1;fontSize=16;" parent="k0fXGJ8QqsJdQDp85Q2W-1" source="0G07HrsRW22DFxrx_kX--7" target="0G07HrsRW22DFxrx_kX--1" edge="1">
          <mxGeometry relative="1" as="geometry"/>
        </mxCell>
        <mxCell id="TeTEu9oZF60Oxjfr8nSh-2" style="edgeStyle=orthogonalEdgeStyle;rounded=0;orthogonalLoop=1;jettySize=auto;html=1;exitX=0.5;exitY=0;exitDx=0;exitDy=0;entryX=0.5;entryY=1;entryDx=0;entryDy=0;endArrow=classic;endFill=1;fontSize=16;" parent="k0fXGJ8QqsJdQDp85Q2W-1" source="0G07HrsRW22DFxrx_kX--7" target="TeTEu9oZF60Oxjfr8nSh-0" edge="1">
          <mxGeometry relative="1" as="geometry"/>
        </mxCell>
        <mxCell id="TeTEu9oZF60Oxjfr8nSh-4" style="edgeStyle=orthogonalEdgeStyle;rounded=0;orthogonalLoop=1;jettySize=auto;html=1;exitX=0.5;exitY=0;exitDx=0;exitDy=0;entryX=0.5;entryY=1;entryDx=0;entryDy=0;endArrow=classic;endFill=1;fontSize=16;" parent="k0fXGJ8QqsJdQDp85Q2W-1" source="0G07HrsRW22DFxrx_kX--7" target="TeTEu9oZF60Oxjfr8nSh-1" edge="1">
          <mxGeometry relative="1" as="geometry"/>
        </mxCell>
        <mxCell id="0G07HrsRW22DFxrx_kX--7" value="数据获取模块" style="rounded=0;whiteSpace=wrap;html=1;fillColor=#d5e8d4;fontSize=16;strokeColor=#82b366;" parent="k0fXGJ8QqsJdQDp85Q2W-1" vertex="1">
          <mxGeometry x="180" y="500" width="120" height="60" as="geometry"/>
        </mxCell>
        <mxCell id="TeTEu9oZF60Oxjfr8nSh-5" style="edgeStyle=orthogonalEdgeStyle;rounded=0;orthogonalLoop=1;jettySize=auto;html=1;exitX=0.5;exitY=0;exitDx=0;exitDy=0;entryX=0.5;entryY=1;entryDx=0;entryDy=0;endArrow=classic;endFill=1;fontSize=16;" parent="k0fXGJ8QqsJdQDp85Q2W-1" source="TeTEu9oZF60Oxjfr8nSh-0" target="0G07HrsRW22DFxrx_kX--6" edge="1">
          <mxGeometry relative="1" as="geometry"/>
        </mxCell>
        <mxCell id="TeTEu9oZF60Oxjfr8nSh-0" value="单维度分析" style="rounded=0;whiteSpace=wrap;html=1;fillColor=#fff2cc;fontSize=16;strokeColor=#d6b656;" parent="k0fXGJ8QqsJdQDp85Q2W-1" vertex="1">
          <mxGeometry x="180" y="390" width="120" height="60" as="geometry"/>
        </mxCell>
        <mxCell id="TeTEu9oZF60Oxjfr8nSh-6" style="edgeStyle=orthogonalEdgeStyle;rounded=0;orthogonalLoop=1;jettySize=auto;html=1;exitX=0.5;exitY=0;exitDx=0;exitDy=0;entryX=0.5;entryY=1;entryDx=0;entryDy=0;endArrow=classic;endFill=1;fontSize=16;" parent="k0fXGJ8QqsJdQDp85Q2W-1" source="TeTEu9oZF60Oxjfr8nSh-1" target="0G07HrsRW22DFxrx_kX--6" edge="1">
          <mxGeometry relative="1" as="geometry"/>
        </mxCell>
        <mxCell id="TeTEu9oZF60Oxjfr8nSh-1" value="单维度分析" style="rounded=0;whiteSpace=wrap;html=1;fillColor=#fff2cc;fontSize=16;strokeColor=#d6b656;" parent="k0fXGJ8QqsJdQDp85Q2W-1" vertex="1">
          <mxGeometry x="310" y="390" width="120" height="60" as="geometry"/>
        </mxCell>
        <mxCell id="TeTEu9oZF60Oxjfr8nSh-10" value="客户网络&lt;br&gt;可视化" style="rounded=0;whiteSpace=wrap;html=1;fillColor=#e1d5e7;fontSize=16;strokeColor=#9673a6;" parent="k0fXGJ8QqsJdQDp85Q2W-1" vertex="1">
          <mxGeometry x="250" y="190" width="120" height="60" as="geometry"/>
        </mxCell>
      </root>
    </mxGraphModel>
  </diagram>
  <diagram id="4Jfd0S_tCRhBiCQN7AZU" name="多维度分析模块示意图">
    <mxGraphModel dx="454" dy="226" grid="1" gridSize="10" guides="1" tooltips="1" connect="1" arrows="1" fold="1" page="1" pageScale="1" pageWidth="827" pageHeight="1169" math="0" shadow="0">
      <root>
        <mxCell id="NAGiehs7lIZlc0TLEsgw-0"/>
        <mxCell id="NAGiehs7lIZlc0TLEsgw-1" parent="NAGiehs7lIZlc0TLEsgw-0"/>
        <mxCell id="a__YISjz4CjjNZh90fcP-73" style="edgeStyle=orthogonalEdgeStyle;rounded=0;orthogonalLoop=1;jettySize=auto;html=1;exitX=0.5;exitY=1;exitDx=0;exitDy=0;entryX=0.5;entryY=0;entryDx=0;entryDy=0;startArrow=none;startFill=0;endArrow=classic;endFill=1;strokeColor=#000000;strokeWidth=1;" edge="1" parent="NAGiehs7lIZlc0TLEsgw-1" source="Gis1EYUZC9jpcxBNXOVw-12" target="Gis1EYUZC9jpcxBNXOVw-16">
          <mxGeometry relative="1" as="geometry"/>
        </mxCell>
        <mxCell id="Gis1EYUZC9jpcxBNXOVw-12" value="分析维度1" style="rounded=0;whiteSpace=wrap;html=1;fillColor=#f8cecc;strokeColor=#b85450;fontSize=15;" vertex="1" parent="NAGiehs7lIZlc0TLEsgw-1">
          <mxGeometry x="70" y="234" width="130" height="38" as="geometry"/>
        </mxCell>
        <mxCell id="a__YISjz4CjjNZh90fcP-74" style="edgeStyle=orthogonalEdgeStyle;rounded=0;orthogonalLoop=1;jettySize=auto;html=1;exitX=0.5;exitY=1;exitDx=0;exitDy=0;entryX=0.5;entryY=0;entryDx=0;entryDy=0;startArrow=none;startFill=0;endArrow=classic;endFill=1;strokeColor=#000000;strokeWidth=1;" edge="1" parent="NAGiehs7lIZlc0TLEsgw-1" source="Gis1EYUZC9jpcxBNXOVw-16" target="a__YISjz4CjjNZh90fcP-0">
          <mxGeometry relative="1" as="geometry">
            <Array as="points">
              <mxPoint x="134" y="322"/>
            </Array>
          </mxGeometry>
        </mxCell>
        <mxCell id="Gis1EYUZC9jpcxBNXOVw-16" value="单维度分析模块" style="rounded=0;whiteSpace=wrap;html=1;fillColor=#fff2cc;strokeColor=#d6b656;fontSize=15;" vertex="1" parent="NAGiehs7lIZlc0TLEsgw-1">
          <mxGeometry x="71" y="292" width="130" height="38" as="geometry"/>
        </mxCell>
        <mxCell id="a__YISjz4CjjNZh90fcP-83" style="rounded=0;orthogonalLoop=1;jettySize=auto;html=1;exitX=0.5;exitY=1;exitDx=0;exitDy=0;entryX=0.5;entryY=0;entryDx=0;entryDy=0;startArrow=none;startFill=0;endArrow=classic;endFill=1;strokeColor=#000000;strokeWidth=1;edgeStyle=orthogonalEdgeStyle;" edge="1" parent="NAGiehs7lIZlc0TLEsgw-1" source="a__YISjz4CjjNZh90fcP-0" target="a__YISjz4CjjNZh90fcP-82">
          <mxGeometry relative="1" as="geometry">
            <Array as="points">
              <mxPoint x="134" y="570"/>
              <mxPoint x="267" y="570"/>
            </Array>
          </mxGeometry>
        </mxCell>
        <mxCell id="a__YISjz4CjjNZh90fcP-0" value="" style="rounded=0;whiteSpace=wrap;html=1;" vertex="1" parent="NAGiehs7lIZlc0TLEsgw-1">
          <mxGeometry x="8" y="347" width="252" height="210" as="geometry"/>
        </mxCell>
        <mxCell id="a__YISjz4CjjNZh90fcP-4" value="" style="html=1;verticalLabelPosition=bottom;align=center;labelBackgroundColor=#ffffff;verticalAlign=top;strokeWidth=2;strokeColor=#0080F0;fillColor=#ffffff;shadow=0;dashed=0;shape=mxgraph.ios7.icons.user;" vertex="1" parent="NAGiehs7lIZlc0TLEsgw-1">
          <mxGeometry x="169.5" y="478" width="30" height="30" as="geometry"/>
        </mxCell>
        <mxCell id="a__YISjz4CjjNZh90fcP-5" style="rounded=0;orthogonalLoop=1;jettySize=auto;html=1;exitX=0.5;exitY=0;exitDx=0;exitDy=0;exitPerimeter=0;entryX=0.5;entryY=1.027;entryDx=0;entryDy=0;entryPerimeter=0;endArrow=none;endFill=0;startArrow=classic;startFill=1;fillColor=#e1d5e7;strokeColor=#6600CC;" edge="1" parent="NAGiehs7lIZlc0TLEsgw-1" source="a__YISjz4CjjNZh90fcP-6" target="a__YISjz4CjjNZh90fcP-4">
          <mxGeometry relative="1" as="geometry"/>
        </mxCell>
        <mxCell id="a__YISjz4CjjNZh90fcP-6" value="" style="verticalLabelPosition=bottom;html=1;verticalAlign=top;align=center;strokeColor=none;fillColor=#00BEF2;shape=mxgraph.azure.computer;pointerEvents=1;" vertex="1" parent="NAGiehs7lIZlc0TLEsgw-1">
          <mxGeometry x="159.5" y="533" width="20" height="17" as="geometry"/>
        </mxCell>
        <mxCell id="a__YISjz4CjjNZh90fcP-7" value="" style="verticalLabelPosition=bottom;html=1;verticalAlign=top;align=center;strokeColor=none;fillColor=#00BEF2;shape=mxgraph.azure.computer;pointerEvents=1;" vertex="1" parent="NAGiehs7lIZlc0TLEsgw-1">
          <mxGeometry x="189.5" y="533" width="20" height="17" as="geometry"/>
        </mxCell>
        <mxCell id="a__YISjz4CjjNZh90fcP-8" style="rounded=0;orthogonalLoop=1;jettySize=auto;html=1;exitX=0.509;exitY=1.007;exitDx=0;exitDy=0;exitPerimeter=0;entryX=0.5;entryY=0;entryDx=0;entryDy=0;entryPerimeter=0;endArrow=classic;endFill=1;startArrow=none;startFill=0;fillColor=#e1d5e7;strokeColor=#6600CC;" edge="1" parent="NAGiehs7lIZlc0TLEsgw-1" source="a__YISjz4CjjNZh90fcP-4" target="a__YISjz4CjjNZh90fcP-7">
          <mxGeometry relative="1" as="geometry">
            <mxPoint x="179.5" y="543" as="sourcePoint"/>
            <mxPoint x="194.5" y="518.8100000000001" as="targetPoint"/>
          </mxGeometry>
        </mxCell>
        <mxCell id="a__YISjz4CjjNZh90fcP-9" value="维度1用户网络示意图" style="text;html=1;strokeColor=none;fillColor=none;align=center;verticalAlign=middle;whiteSpace=wrap;rounded=0;fontSize=17;" vertex="1" parent="NAGiehs7lIZlc0TLEsgw-1">
          <mxGeometry x="38" y="354" width="179" height="30" as="geometry"/>
        </mxCell>
        <mxCell id="a__YISjz4CjjNZh90fcP-10" style="rounded=0;orthogonalLoop=1;jettySize=auto;html=1;exitX=0.5;exitY=0;exitDx=0;exitDy=0;exitPerimeter=0;entryX=0.363;entryY=0.97;entryDx=0;entryDy=0;entryPerimeter=0;endArrow=none;endFill=0;startArrow=classic;startFill=1;fillColor=#e1d5e7;strokeColor=#6600CC;strokeWidth=2;" edge="1" parent="NAGiehs7lIZlc0TLEsgw-1" source="a__YISjz4CjjNZh90fcP-16" target="a__YISjz4CjjNZh90fcP-15">
          <mxGeometry relative="1" as="geometry"/>
        </mxCell>
        <mxCell id="a__YISjz4CjjNZh90fcP-12" style="rounded=0;orthogonalLoop=1;jettySize=auto;html=1;exitX=0.5;exitY=0;exitDx=0;exitDy=0;exitPerimeter=0;entryX=0.5;entryY=1.027;entryDx=0;entryDy=0;entryPerimeter=0;endArrow=none;endFill=0;startArrow=classic;startFill=1;fillColor=#e1d5e7;strokeColor=#6600CC;" edge="1" parent="NAGiehs7lIZlc0TLEsgw-1" source="a__YISjz4CjjNZh90fcP-19" target="a__YISjz4CjjNZh90fcP-18">
          <mxGeometry relative="1" as="geometry"/>
        </mxCell>
        <mxCell id="a__YISjz4CjjNZh90fcP-13" style="rounded=0;orthogonalLoop=1;jettySize=auto;html=1;exitX=0.509;exitY=1.007;exitDx=0;exitDy=0;exitPerimeter=0;entryX=0.5;entryY=0;entryDx=0;entryDy=0;entryPerimeter=0;endArrow=classic;endFill=1;startArrow=none;startFill=0;fillColor=#e1d5e7;strokeColor=#6600CC;" edge="1" parent="NAGiehs7lIZlc0TLEsgw-1" source="a__YISjz4CjjNZh90fcP-18" target="a__YISjz4CjjNZh90fcP-20">
          <mxGeometry relative="1" as="geometry">
            <mxPoint x="53.5" y="543" as="sourcePoint"/>
            <mxPoint x="68.5" y="518.81" as="targetPoint"/>
          </mxGeometry>
        </mxCell>
        <mxCell id="a__YISjz4CjjNZh90fcP-14" style="rounded=0;orthogonalLoop=1;jettySize=auto;html=1;entryX=0.5;entryY=0;entryDx=0;entryDy=0;entryPerimeter=0;endArrow=classic;endFill=1;startArrow=none;startFill=0;fillColor=#e1d5e7;strokeColor=#6600CC;" edge="1" parent="NAGiehs7lIZlc0TLEsgw-1" target="a__YISjz4CjjNZh90fcP-21">
          <mxGeometry relative="1" as="geometry">
            <mxPoint x="73.50000000000023" y="508" as="sourcePoint"/>
            <mxPoint x="93" y="518.81" as="targetPoint"/>
          </mxGeometry>
        </mxCell>
        <mxCell id="a__YISjz4CjjNZh90fcP-15" value="客户1" style="html=1;verticalLabelPosition=bottom;align=center;labelBackgroundColor=#ffffff;verticalAlign=top;strokeWidth=2;strokeColor=#990000;fillColor=#ffffff;shadow=0;dashed=0;shape=mxgraph.ios7.icons.user;" vertex="1" parent="NAGiehs7lIZlc0TLEsgw-1">
          <mxGeometry x="110.5" y="388" width="30" height="30" as="geometry"/>
        </mxCell>
        <mxCell id="a__YISjz4CjjNZh90fcP-16" value="" style="verticalLabelPosition=bottom;html=1;verticalAlign=top;align=center;strokeColor=none;fillColor=#00BEF2;shape=mxgraph.azure.computer;pointerEvents=1;" vertex="1" parent="NAGiehs7lIZlc0TLEsgw-1">
          <mxGeometry x="70" y="443.5" width="20" height="17" as="geometry"/>
        </mxCell>
        <mxCell id="a__YISjz4CjjNZh90fcP-34" style="edgeStyle=none;rounded=0;orthogonalLoop=1;jettySize=auto;html=1;exitX=0.5;exitY=1;exitDx=0;exitDy=0;exitPerimeter=0;entryX=0.35;entryY=-0.024;entryDx=0;entryDy=0;entryPerimeter=0;endArrow=classic;endFill=1;startArrow=none;startFill=0;fillColor=#e1d5e7;strokeColor=#6600CC;" edge="1" parent="NAGiehs7lIZlc0TLEsgw-1" source="a__YISjz4CjjNZh90fcP-17" target="a__YISjz4CjjNZh90fcP-4">
          <mxGeometry relative="1" as="geometry"/>
        </mxCell>
        <mxCell id="a__YISjz4CjjNZh90fcP-17" value="" style="verticalLabelPosition=bottom;html=1;verticalAlign=top;align=center;strokeColor=none;fillColor=#00BEF2;shape=mxgraph.azure.computer;pointerEvents=1;" vertex="1" parent="NAGiehs7lIZlc0TLEsgw-1">
          <mxGeometry x="159.5" y="443.5" width="20" height="17" as="geometry"/>
        </mxCell>
        <mxCell id="a__YISjz4CjjNZh90fcP-18" value="" style="html=1;verticalLabelPosition=bottom;align=center;labelBackgroundColor=#ffffff;verticalAlign=top;strokeWidth=2;strokeColor=#0080F0;fillColor=#ffffff;shadow=0;dashed=0;shape=mxgraph.ios7.icons.user;" vertex="1" parent="NAGiehs7lIZlc0TLEsgw-1">
          <mxGeometry x="58" y="478" width="30" height="30" as="geometry"/>
        </mxCell>
        <mxCell id="a__YISjz4CjjNZh90fcP-19" value="" style="verticalLabelPosition=bottom;html=1;verticalAlign=top;align=center;strokeColor=none;fillColor=#00BEF2;shape=mxgraph.azure.computer;pointerEvents=1;" vertex="1" parent="NAGiehs7lIZlc0TLEsgw-1">
          <mxGeometry x="33.5" y="533" width="20" height="17" as="geometry"/>
        </mxCell>
        <mxCell id="a__YISjz4CjjNZh90fcP-20" value="" style="verticalLabelPosition=bottom;html=1;verticalAlign=top;align=center;strokeColor=none;fillColor=#00BEF2;shape=mxgraph.azure.computer;pointerEvents=1;" vertex="1" parent="NAGiehs7lIZlc0TLEsgw-1">
          <mxGeometry x="63.5" y="533" width="20" height="17" as="geometry"/>
        </mxCell>
        <mxCell id="a__YISjz4CjjNZh90fcP-21" value="" style="verticalLabelPosition=bottom;html=1;verticalAlign=top;align=center;strokeColor=none;fillColor=#00BEF2;shape=mxgraph.azure.computer;pointerEvents=1;" vertex="1" parent="NAGiehs7lIZlc0TLEsgw-1">
          <mxGeometry x="88" y="533" width="20" height="17" as="geometry"/>
        </mxCell>
        <mxCell id="a__YISjz4CjjNZh90fcP-24" value="" style="verticalLabelPosition=bottom;html=1;verticalAlign=top;align=center;strokeColor=none;fillColor=#00BEF2;shape=mxgraph.azure.computer;pointerEvents=1;" vertex="1" parent="NAGiehs7lIZlc0TLEsgw-1">
          <mxGeometry x="33" y="533" width="20" height="17" as="geometry"/>
        </mxCell>
        <mxCell id="a__YISjz4CjjNZh90fcP-31" style="edgeStyle=none;rounded=0;orthogonalLoop=1;jettySize=auto;html=1;exitX=0.5;exitY=1;exitDx=0;exitDy=0;exitPerimeter=0;entryX=0.496;entryY=0.017;entryDx=0;entryDy=0;entryPerimeter=0;endArrow=classic;endFill=1;startArrow=none;startFill=0;fillColor=#e1d5e7;strokeColor=#6600CC;strokeWidth=2;" edge="1" parent="NAGiehs7lIZlc0TLEsgw-1" source="a__YISjz4CjjNZh90fcP-28" target="a__YISjz4CjjNZh90fcP-18">
          <mxGeometry relative="1" as="geometry"/>
        </mxCell>
        <mxCell id="a__YISjz4CjjNZh90fcP-28" value="" style="verticalLabelPosition=bottom;html=1;verticalAlign=top;align=center;strokeColor=none;fillColor=#00BEF2;shape=mxgraph.azure.computer;pointerEvents=1;" vertex="1" parent="NAGiehs7lIZlc0TLEsgw-1">
          <mxGeometry x="69.5" y="443.5" width="20" height="17" as="geometry"/>
        </mxCell>
        <mxCell id="a__YISjz4CjjNZh90fcP-33" style="rounded=0;orthogonalLoop=1;jettySize=auto;html=1;exitX=0.5;exitY=0;exitDx=0;exitDy=0;exitPerimeter=0;entryX=0.672;entryY=1.011;entryDx=0;entryDy=0;entryPerimeter=0;endArrow=none;endFill=0;startArrow=classic;startFill=1;fillColor=#e1d5e7;strokeColor=#6600CC;strokeWidth=1;" edge="1" parent="NAGiehs7lIZlc0TLEsgw-1" source="a__YISjz4CjjNZh90fcP-17" target="a__YISjz4CjjNZh90fcP-15">
          <mxGeometry relative="1" as="geometry">
            <mxPoint x="109.5" y="453.5" as="sourcePoint"/>
            <mxPoint x="131.3900000000001" y="427.1" as="targetPoint"/>
          </mxGeometry>
        </mxCell>
        <mxCell id="a__YISjz4CjjNZh90fcP-35" value="维度1标记潜在大户" style="text;html=1;strokeColor=none;fillColor=none;align=center;verticalAlign=middle;whiteSpace=wrap;rounded=0;" vertex="1" parent="NAGiehs7lIZlc0TLEsgw-1">
          <mxGeometry x="147.5" y="393" width="74" height="20" as="geometry"/>
        </mxCell>
        <mxCell id="a__YISjz4CjjNZh90fcP-75" style="edgeStyle=orthogonalEdgeStyle;rounded=0;orthogonalLoop=1;jettySize=auto;html=1;exitX=0.5;exitY=1;exitDx=0;exitDy=0;entryX=0.5;entryY=0;entryDx=0;entryDy=0;startArrow=none;startFill=0;endArrow=classic;endFill=1;strokeColor=#000000;strokeWidth=1;" edge="1" parent="NAGiehs7lIZlc0TLEsgw-1" source="a__YISjz4CjjNZh90fcP-39" target="a__YISjz4CjjNZh90fcP-40">
          <mxGeometry relative="1" as="geometry"/>
        </mxCell>
        <mxCell id="a__YISjz4CjjNZh90fcP-39" value="分析维度2" style="rounded=0;whiteSpace=wrap;html=1;fillColor=#f8cecc;strokeColor=#b85450;fontSize=15;" vertex="1" parent="NAGiehs7lIZlc0TLEsgw-1">
          <mxGeometry x="342.5" y="237" width="130" height="38" as="geometry"/>
        </mxCell>
        <mxCell id="a__YISjz4CjjNZh90fcP-76" style="edgeStyle=orthogonalEdgeStyle;rounded=0;orthogonalLoop=1;jettySize=auto;html=1;exitX=0.5;exitY=1;exitDx=0;exitDy=0;entryX=0.5;entryY=0;entryDx=0;entryDy=0;startArrow=none;startFill=0;endArrow=classic;endFill=1;strokeColor=#000000;strokeWidth=1;" edge="1" parent="NAGiehs7lIZlc0TLEsgw-1" source="a__YISjz4CjjNZh90fcP-40" target="a__YISjz4CjjNZh90fcP-47">
          <mxGeometry relative="1" as="geometry"/>
        </mxCell>
        <mxCell id="a__YISjz4CjjNZh90fcP-40" value="单维度分析模块" style="rounded=0;whiteSpace=wrap;html=1;fillColor=#fff2cc;strokeColor=#d6b656;fontSize=15;" vertex="1" parent="NAGiehs7lIZlc0TLEsgw-1">
          <mxGeometry x="340.5" y="292" width="130" height="38" as="geometry"/>
        </mxCell>
        <mxCell id="a__YISjz4CjjNZh90fcP-145" style="edgeStyle=orthogonalEdgeStyle;rounded=0;orthogonalLoop=1;jettySize=auto;html=1;exitX=0.5;exitY=1;exitDx=0;exitDy=0;entryX=0.5;entryY=0;entryDx=0;entryDy=0;startArrow=none;startFill=0;endArrow=classic;endFill=1;strokeColor=#000000;strokeWidth=1;" edge="1" parent="NAGiehs7lIZlc0TLEsgw-1" source="a__YISjz4CjjNZh90fcP-47" target="a__YISjz4CjjNZh90fcP-82">
          <mxGeometry relative="1" as="geometry">
            <Array as="points">
              <mxPoint x="408" y="570"/>
              <mxPoint x="267" y="570"/>
            </Array>
          </mxGeometry>
        </mxCell>
        <mxCell id="a__YISjz4CjjNZh90fcP-47" value="" style="rounded=0;whiteSpace=wrap;html=1;" vertex="1" parent="NAGiehs7lIZlc0TLEsgw-1">
          <mxGeometry x="278.5" y="347" width="258" height="210" as="geometry"/>
        </mxCell>
        <mxCell id="a__YISjz4CjjNZh90fcP-48" value="" style="html=1;verticalLabelPosition=bottom;align=center;labelBackgroundColor=#ffffff;verticalAlign=top;strokeWidth=2;strokeColor=#0080F0;fillColor=#ffffff;shadow=0;dashed=0;shape=mxgraph.ios7.icons.user;" vertex="1" parent="NAGiehs7lIZlc0TLEsgw-1">
          <mxGeometry x="443.5" y="473.5" width="30" height="30" as="geometry"/>
        </mxCell>
        <mxCell id="a__YISjz4CjjNZh90fcP-49" style="rounded=0;orthogonalLoop=1;jettySize=auto;html=1;exitX=0.5;exitY=0;exitDx=0;exitDy=0;exitPerimeter=0;entryX=0.5;entryY=1.027;entryDx=0;entryDy=0;entryPerimeter=0;endArrow=none;endFill=0;startArrow=classic;startFill=1;fillColor=#e1d5e7;strokeColor=#FF0000;" edge="1" parent="NAGiehs7lIZlc0TLEsgw-1" source="a__YISjz4CjjNZh90fcP-50" target="a__YISjz4CjjNZh90fcP-48">
          <mxGeometry relative="1" as="geometry"/>
        </mxCell>
        <mxCell id="a__YISjz4CjjNZh90fcP-50" value="" style="verticalLabelPosition=bottom;html=1;verticalAlign=top;align=center;strokeColor=none;fillColor=#00BEF2;shape=mxgraph.azure.computer;pointerEvents=1;" vertex="1" parent="NAGiehs7lIZlc0TLEsgw-1">
          <mxGeometry x="433.5" y="528.5" width="20" height="17" as="geometry"/>
        </mxCell>
        <mxCell id="a__YISjz4CjjNZh90fcP-51" value="" style="verticalLabelPosition=bottom;html=1;verticalAlign=top;align=center;strokeColor=none;fillColor=#00BEF2;shape=mxgraph.azure.computer;pointerEvents=1;" vertex="1" parent="NAGiehs7lIZlc0TLEsgw-1">
          <mxGeometry x="463.5" y="528.5" width="20" height="17" as="geometry"/>
        </mxCell>
        <mxCell id="a__YISjz4CjjNZh90fcP-52" style="rounded=0;orthogonalLoop=1;jettySize=auto;html=1;exitX=0.509;exitY=1.007;exitDx=0;exitDy=0;exitPerimeter=0;entryX=0.5;entryY=0;entryDx=0;entryDy=0;entryPerimeter=0;endArrow=classic;endFill=1;startArrow=none;startFill=0;fillColor=#e1d5e7;strokeColor=#FF0000;" edge="1" parent="NAGiehs7lIZlc0TLEsgw-1" source="a__YISjz4CjjNZh90fcP-48" target="a__YISjz4CjjNZh90fcP-51">
          <mxGeometry relative="1" as="geometry">
            <mxPoint x="453.5" y="538.5" as="sourcePoint"/>
            <mxPoint x="468.5" y="514.3100000000001" as="targetPoint"/>
          </mxGeometry>
        </mxCell>
        <mxCell id="a__YISjz4CjjNZh90fcP-53" value="维度2用户网络示意图" style="text;html=1;strokeColor=none;fillColor=none;align=center;verticalAlign=middle;whiteSpace=wrap;rounded=0;fontSize=17;" vertex="1" parent="NAGiehs7lIZlc0TLEsgw-1">
          <mxGeometry x="300" y="353" width="179" height="30" as="geometry"/>
        </mxCell>
        <mxCell id="a__YISjz4CjjNZh90fcP-54" style="rounded=0;orthogonalLoop=1;jettySize=auto;html=1;exitX=0.5;exitY=0;exitDx=0;exitDy=0;exitPerimeter=0;entryX=0.363;entryY=0.97;entryDx=0;entryDy=0;entryPerimeter=0;endArrow=none;endFill=0;startArrow=classic;startFill=1;fillColor=#e1d5e7;strokeColor=#FF0000;strokeWidth=2;" edge="1" parent="NAGiehs7lIZlc0TLEsgw-1" source="a__YISjz4CjjNZh90fcP-59" target="a__YISjz4CjjNZh90fcP-58">
          <mxGeometry relative="1" as="geometry"/>
        </mxCell>
        <mxCell id="a__YISjz4CjjNZh90fcP-55" style="rounded=0;orthogonalLoop=1;jettySize=auto;html=1;exitX=0.5;exitY=0;exitDx=0;exitDy=0;exitPerimeter=0;entryX=0.5;entryY=1.027;entryDx=0;entryDy=0;entryPerimeter=0;endArrow=none;endFill=0;startArrow=classic;startFill=1;fillColor=#e1d5e7;strokeColor=#FF0000;" edge="1" parent="NAGiehs7lIZlc0TLEsgw-1" source="a__YISjz4CjjNZh90fcP-63" target="a__YISjz4CjjNZh90fcP-62">
          <mxGeometry relative="1" as="geometry"/>
        </mxCell>
        <mxCell id="a__YISjz4CjjNZh90fcP-56" style="rounded=0;orthogonalLoop=1;jettySize=auto;html=1;exitX=0.509;exitY=1.007;exitDx=0;exitDy=0;exitPerimeter=0;entryX=0.5;entryY=0;entryDx=0;entryDy=0;entryPerimeter=0;endArrow=classic;endFill=1;startArrow=none;startFill=0;fillColor=#e1d5e7;strokeColor=#FF0000;" edge="1" parent="NAGiehs7lIZlc0TLEsgw-1" source="a__YISjz4CjjNZh90fcP-62" target="a__YISjz4CjjNZh90fcP-64">
          <mxGeometry relative="1" as="geometry">
            <mxPoint x="310.5" y="538.5" as="sourcePoint"/>
            <mxPoint x="325.5" y="514.31" as="targetPoint"/>
          </mxGeometry>
        </mxCell>
        <mxCell id="a__YISjz4CjjNZh90fcP-57" style="rounded=0;orthogonalLoop=1;jettySize=auto;html=1;entryX=0.5;entryY=0;entryDx=0;entryDy=0;entryPerimeter=0;endArrow=classic;endFill=1;startArrow=none;startFill=0;fillColor=#e1d5e7;strokeColor=#FF0000;" edge="1" parent="NAGiehs7lIZlc0TLEsgw-1" target="a__YISjz4CjjNZh90fcP-65">
          <mxGeometry relative="1" as="geometry">
            <mxPoint x="330.5000000000002" y="503.5" as="sourcePoint"/>
            <mxPoint x="350" y="514.31" as="targetPoint"/>
          </mxGeometry>
        </mxCell>
        <mxCell id="a__YISjz4CjjNZh90fcP-58" value="&lt;b&gt;客户2&lt;/b&gt;" style="html=1;verticalLabelPosition=bottom;align=center;labelBackgroundColor=#ffffff;verticalAlign=top;strokeWidth=2;strokeColor=#82b366;fillColor=#d5e8d4;shadow=0;dashed=0;shape=mxgraph.ios7.icons.user;" vertex="1" parent="NAGiehs7lIZlc0TLEsgw-1">
          <mxGeometry x="372.5" y="387" width="30" height="30" as="geometry"/>
        </mxCell>
        <mxCell id="a__YISjz4CjjNZh90fcP-59" value="" style="verticalLabelPosition=bottom;html=1;verticalAlign=top;align=center;strokeColor=none;fillColor=#00BEF2;shape=mxgraph.azure.computer;pointerEvents=1;" vertex="1" parent="NAGiehs7lIZlc0TLEsgw-1">
          <mxGeometry x="327" y="439" width="20" height="17" as="geometry"/>
        </mxCell>
        <mxCell id="a__YISjz4CjjNZh90fcP-60" style="edgeStyle=none;rounded=0;orthogonalLoop=1;jettySize=auto;html=1;exitX=0.5;exitY=1;exitDx=0;exitDy=0;exitPerimeter=0;entryX=0.35;entryY=-0.024;entryDx=0;entryDy=0;entryPerimeter=0;endArrow=classic;endFill=1;startArrow=none;startFill=0;fillColor=#e1d5e7;strokeColor=#FF0000;" edge="1" parent="NAGiehs7lIZlc0TLEsgw-1" source="a__YISjz4CjjNZh90fcP-61" target="a__YISjz4CjjNZh90fcP-48">
          <mxGeometry relative="1" as="geometry"/>
        </mxCell>
        <mxCell id="a__YISjz4CjjNZh90fcP-61" value="" style="verticalLabelPosition=bottom;html=1;verticalAlign=top;align=center;strokeColor=none;fillColor=#00BEF2;shape=mxgraph.azure.computer;pointerEvents=1;" vertex="1" parent="NAGiehs7lIZlc0TLEsgw-1">
          <mxGeometry x="433.5" y="439" width="20" height="17" as="geometry"/>
        </mxCell>
        <mxCell id="a__YISjz4CjjNZh90fcP-62" value="" style="html=1;verticalLabelPosition=bottom;align=center;labelBackgroundColor=#ffffff;verticalAlign=top;strokeWidth=2;strokeColor=#0080F0;fillColor=#ffffff;shadow=0;dashed=0;shape=mxgraph.ios7.icons.user;" vertex="1" parent="NAGiehs7lIZlc0TLEsgw-1">
          <mxGeometry x="315" y="473.5" width="30" height="30" as="geometry"/>
        </mxCell>
        <mxCell id="a__YISjz4CjjNZh90fcP-63" value="" style="verticalLabelPosition=bottom;html=1;verticalAlign=top;align=center;strokeColor=none;fillColor=#00BEF2;shape=mxgraph.azure.computer;pointerEvents=1;" vertex="1" parent="NAGiehs7lIZlc0TLEsgw-1">
          <mxGeometry x="290.5" y="528.5" width="20" height="17" as="geometry"/>
        </mxCell>
        <mxCell id="a__YISjz4CjjNZh90fcP-64" value="" style="verticalLabelPosition=bottom;html=1;verticalAlign=top;align=center;strokeColor=none;fillColor=#00BEF2;shape=mxgraph.azure.computer;pointerEvents=1;" vertex="1" parent="NAGiehs7lIZlc0TLEsgw-1">
          <mxGeometry x="320.5" y="528.5" width="20" height="17" as="geometry"/>
        </mxCell>
        <mxCell id="a__YISjz4CjjNZh90fcP-65" value="" style="verticalLabelPosition=bottom;html=1;verticalAlign=top;align=center;strokeColor=none;fillColor=#00BEF2;shape=mxgraph.azure.computer;pointerEvents=1;" vertex="1" parent="NAGiehs7lIZlc0TLEsgw-1">
          <mxGeometry x="345" y="528.5" width="20" height="17" as="geometry"/>
        </mxCell>
        <mxCell id="a__YISjz4CjjNZh90fcP-66" value="" style="verticalLabelPosition=bottom;html=1;verticalAlign=top;align=center;strokeColor=none;fillColor=#00BEF2;shape=mxgraph.azure.computer;pointerEvents=1;" vertex="1" parent="NAGiehs7lIZlc0TLEsgw-1">
          <mxGeometry x="290" y="528.5" width="20" height="17" as="geometry"/>
        </mxCell>
        <mxCell id="a__YISjz4CjjNZh90fcP-67" style="edgeStyle=none;rounded=0;orthogonalLoop=1;jettySize=auto;html=1;exitX=0.5;exitY=1;exitDx=0;exitDy=0;exitPerimeter=0;entryX=0.496;entryY=0.017;entryDx=0;entryDy=0;entryPerimeter=0;endArrow=classic;endFill=1;startArrow=none;startFill=0;fillColor=#e1d5e7;strokeColor=#FF0000;strokeWidth=2;" edge="1" parent="NAGiehs7lIZlc0TLEsgw-1" source="a__YISjz4CjjNZh90fcP-68" target="a__YISjz4CjjNZh90fcP-62">
          <mxGeometry relative="1" as="geometry"/>
        </mxCell>
        <mxCell id="a__YISjz4CjjNZh90fcP-68" value="" style="verticalLabelPosition=bottom;html=1;verticalAlign=top;align=center;strokeColor=none;fillColor=#00BEF2;shape=mxgraph.azure.computer;pointerEvents=1;" vertex="1" parent="NAGiehs7lIZlc0TLEsgw-1">
          <mxGeometry x="326.5" y="439" width="20" height="17" as="geometry"/>
        </mxCell>
        <mxCell id="a__YISjz4CjjNZh90fcP-69" style="rounded=0;orthogonalLoop=1;jettySize=auto;html=1;exitX=0.5;exitY=0;exitDx=0;exitDy=0;exitPerimeter=0;entryX=0.672;entryY=1.011;entryDx=0;entryDy=0;entryPerimeter=0;endArrow=none;endFill=0;startArrow=classic;startFill=1;fillColor=#e1d5e7;strokeColor=#FF0000;strokeWidth=1;" edge="1" parent="NAGiehs7lIZlc0TLEsgw-1" source="a__YISjz4CjjNZh90fcP-61" target="a__YISjz4CjjNZh90fcP-58">
          <mxGeometry relative="1" as="geometry">
            <mxPoint x="371.5" y="452.5" as="sourcePoint"/>
            <mxPoint x="393.3900000000001" y="426.1" as="targetPoint"/>
          </mxGeometry>
        </mxCell>
        <mxCell id="a__YISjz4CjjNZh90fcP-70" value="维度2标记潜在大户" style="text;html=1;strokeColor=none;fillColor=none;align=center;verticalAlign=middle;whiteSpace=wrap;rounded=0;" vertex="1" parent="NAGiehs7lIZlc0TLEsgw-1">
          <mxGeometry x="409.5" y="392" width="74" height="20" as="geometry"/>
        </mxCell>
        <mxCell id="a__YISjz4CjjNZh90fcP-78" value="客户3" style="text;html=1;strokeColor=none;fillColor=none;align=center;verticalAlign=middle;whiteSpace=wrap;rounded=0;" vertex="1" parent="NAGiehs7lIZlc0TLEsgw-1">
          <mxGeometry x="87.5" y="483" width="40" height="20" as="geometry"/>
        </mxCell>
        <mxCell id="a__YISjz4CjjNZh90fcP-79" value="&lt;b&gt;客户2&lt;/b&gt;" style="text;html=1;strokeColor=none;fillColor=none;align=center;verticalAlign=middle;whiteSpace=wrap;rounded=0;" vertex="1" parent="NAGiehs7lIZlc0TLEsgw-1">
          <mxGeometry x="201.5" y="483" width="40" height="20" as="geometry"/>
        </mxCell>
        <mxCell id="a__YISjz4CjjNZh90fcP-80" value="客户4" style="text;html=1;strokeColor=none;fillColor=none;align=center;verticalAlign=middle;whiteSpace=wrap;rounded=0;" vertex="1" parent="NAGiehs7lIZlc0TLEsgw-1">
          <mxGeometry x="345" y="478.5" width="40" height="20" as="geometry"/>
        </mxCell>
        <mxCell id="a__YISjz4CjjNZh90fcP-81" value="客户5" style="text;html=1;strokeColor=none;fillColor=none;align=center;verticalAlign=middle;whiteSpace=wrap;rounded=0;" vertex="1" parent="NAGiehs7lIZlc0TLEsgw-1">
          <mxGeometry x="479" y="478" width="40" height="20" as="geometry"/>
        </mxCell>
        <mxCell id="a__YISjz4CjjNZh90fcP-144" style="edgeStyle=none;rounded=0;orthogonalLoop=1;jettySize=auto;html=1;exitX=0.5;exitY=1;exitDx=0;exitDy=0;entryX=0.487;entryY=-0.001;entryDx=0;entryDy=0;entryPerimeter=0;startArrow=none;startFill=0;endArrow=classic;endFill=1;strokeColor=#000000;strokeWidth=1;" edge="1" parent="NAGiehs7lIZlc0TLEsgw-1" source="a__YISjz4CjjNZh90fcP-82" target="a__YISjz4CjjNZh90fcP-85">
          <mxGeometry relative="1" as="geometry"/>
        </mxCell>
        <mxCell id="a__YISjz4CjjNZh90fcP-82" value="以客户为主键扩展&lt;br style=&quot;font-size: 15px;&quot;&gt;" style="rounded=0;whiteSpace=wrap;html=1;fontSize=15;" vertex="1" parent="NAGiehs7lIZlc0TLEsgw-1">
          <mxGeometry x="201" y="590" width="133" height="36" as="geometry"/>
        </mxCell>
        <mxCell id="a__YISjz4CjjNZh90fcP-85" value="" style="rounded=0;whiteSpace=wrap;html=1;" vertex="1" parent="NAGiehs7lIZlc0TLEsgw-1">
          <mxGeometry x="113" y="640" width="317" height="290" as="geometry"/>
        </mxCell>
        <mxCell id="a__YISjz4CjjNZh90fcP-86" value="" style="html=1;verticalLabelPosition=bottom;align=center;labelBackgroundColor=#ffffff;verticalAlign=top;strokeWidth=2;strokeColor=#82b366;fillColor=#d5e8d4;shadow=0;dashed=0;shape=mxgraph.ios7.icons.user;" vertex="1" parent="NAGiehs7lIZlc0TLEsgw-1">
          <mxGeometry x="261.5" y="759" width="30" height="30" as="geometry"/>
        </mxCell>
        <mxCell id="a__YISjz4CjjNZh90fcP-87" style="rounded=0;orthogonalLoop=1;jettySize=auto;html=1;exitX=0.5;exitY=0;exitDx=0;exitDy=0;exitPerimeter=0;entryX=0.5;entryY=1.027;entryDx=0;entryDy=0;entryPerimeter=0;endArrow=none;endFill=0;startArrow=classic;startFill=1;fillColor=#e1d5e7;strokeColor=#6600CC;" edge="1" parent="NAGiehs7lIZlc0TLEsgw-1" source="a__YISjz4CjjNZh90fcP-88" target="a__YISjz4CjjNZh90fcP-86">
          <mxGeometry relative="1" as="geometry"/>
        </mxCell>
        <mxCell id="a__YISjz4CjjNZh90fcP-88" value="" style="verticalLabelPosition=bottom;html=1;verticalAlign=top;align=center;strokeColor=none;fillColor=#00BEF2;shape=mxgraph.azure.computer;pointerEvents=1;" vertex="1" parent="NAGiehs7lIZlc0TLEsgw-1">
          <mxGeometry x="251.5" y="814" width="20" height="17" as="geometry"/>
        </mxCell>
        <mxCell id="a__YISjz4CjjNZh90fcP-89" value="" style="verticalLabelPosition=bottom;html=1;verticalAlign=top;align=center;strokeColor=none;fillColor=#00BEF2;shape=mxgraph.azure.computer;pointerEvents=1;" vertex="1" parent="NAGiehs7lIZlc0TLEsgw-1">
          <mxGeometry x="281.5" y="814" width="20" height="17" as="geometry"/>
        </mxCell>
        <mxCell id="a__YISjz4CjjNZh90fcP-90" style="rounded=0;orthogonalLoop=1;jettySize=auto;html=1;exitX=0.509;exitY=1.007;exitDx=0;exitDy=0;exitPerimeter=0;entryX=0.5;entryY=0;entryDx=0;entryDy=0;entryPerimeter=0;endArrow=classic;endFill=1;startArrow=none;startFill=0;fillColor=#e1d5e7;strokeColor=#6600CC;" edge="1" parent="NAGiehs7lIZlc0TLEsgw-1" source="a__YISjz4CjjNZh90fcP-86" target="a__YISjz4CjjNZh90fcP-89">
          <mxGeometry relative="1" as="geometry">
            <mxPoint x="271.5" y="824" as="sourcePoint"/>
            <mxPoint x="286.5" y="799.8100000000001" as="targetPoint"/>
          </mxGeometry>
        </mxCell>
        <mxCell id="a__YISjz4CjjNZh90fcP-91" value="多维度用户网络示意图" style="text;html=1;strokeColor=none;fillColor=none;align=center;verticalAlign=middle;whiteSpace=wrap;rounded=0;fontSize=17;" vertex="1" parent="NAGiehs7lIZlc0TLEsgw-1">
          <mxGeometry x="180" y="644" width="179" height="30" as="geometry"/>
        </mxCell>
        <mxCell id="a__YISjz4CjjNZh90fcP-92" style="rounded=0;orthogonalLoop=1;jettySize=auto;html=1;exitX=0.5;exitY=0;exitDx=0;exitDy=0;exitPerimeter=0;entryX=0.363;entryY=0.97;entryDx=0;entryDy=0;entryPerimeter=0;endArrow=none;endFill=0;startArrow=classic;startFill=1;fillColor=#e1d5e7;strokeColor=#6600CC;strokeWidth=2;" edge="1" parent="NAGiehs7lIZlc0TLEsgw-1" source="a__YISjz4CjjNZh90fcP-97" target="a__YISjz4CjjNZh90fcP-96">
          <mxGeometry relative="1" as="geometry"/>
        </mxCell>
        <mxCell id="a__YISjz4CjjNZh90fcP-93" style="rounded=0;orthogonalLoop=1;jettySize=auto;html=1;exitX=0.5;exitY=0;exitDx=0;exitDy=0;exitPerimeter=0;entryX=0.5;entryY=1.027;entryDx=0;entryDy=0;entryPerimeter=0;endArrow=none;endFill=0;startArrow=classic;startFill=1;fillColor=#e1d5e7;strokeColor=#6600CC;" edge="1" parent="NAGiehs7lIZlc0TLEsgw-1" source="a__YISjz4CjjNZh90fcP-101" target="a__YISjz4CjjNZh90fcP-100">
          <mxGeometry relative="1" as="geometry"/>
        </mxCell>
        <mxCell id="a__YISjz4CjjNZh90fcP-94" style="rounded=0;orthogonalLoop=1;jettySize=auto;html=1;exitX=0.509;exitY=1.007;exitDx=0;exitDy=0;exitPerimeter=0;entryX=0.5;entryY=0;entryDx=0;entryDy=0;entryPerimeter=0;endArrow=classic;endFill=1;startArrow=none;startFill=0;fillColor=#e1d5e7;strokeColor=#6600CC;" edge="1" parent="NAGiehs7lIZlc0TLEsgw-1" source="a__YISjz4CjjNZh90fcP-100" target="a__YISjz4CjjNZh90fcP-102">
          <mxGeometry relative="1" as="geometry">
            <mxPoint x="145.5" y="824" as="sourcePoint"/>
            <mxPoint x="160.5" y="799.81" as="targetPoint"/>
          </mxGeometry>
        </mxCell>
        <mxCell id="a__YISjz4CjjNZh90fcP-95" style="rounded=0;orthogonalLoop=1;jettySize=auto;html=1;entryX=0.5;entryY=0;entryDx=0;entryDy=0;entryPerimeter=0;endArrow=classic;endFill=1;startArrow=none;startFill=0;fillColor=#e1d5e7;strokeColor=#6600CC;" edge="1" parent="NAGiehs7lIZlc0TLEsgw-1" target="a__YISjz4CjjNZh90fcP-103">
          <mxGeometry relative="1" as="geometry">
            <mxPoint x="165.50000000000023" y="789" as="sourcePoint"/>
            <mxPoint x="185" y="799.81" as="targetPoint"/>
          </mxGeometry>
        </mxCell>
        <mxCell id="a__YISjz4CjjNZh90fcP-96" value="客户1" style="html=1;verticalLabelPosition=bottom;align=center;labelBackgroundColor=#ffffff;verticalAlign=top;strokeWidth=2;strokeColor=#990000;fillColor=#ffffff;shadow=0;dashed=0;shape=mxgraph.ios7.icons.user;" vertex="1" parent="NAGiehs7lIZlc0TLEsgw-1">
          <mxGeometry x="202.5" y="669" width="30" height="30" as="geometry"/>
        </mxCell>
        <mxCell id="a__YISjz4CjjNZh90fcP-97" value="" style="verticalLabelPosition=bottom;html=1;verticalAlign=top;align=center;strokeColor=none;fillColor=#00BEF2;shape=mxgraph.azure.computer;pointerEvents=1;" vertex="1" parent="NAGiehs7lIZlc0TLEsgw-1">
          <mxGeometry x="162" y="724.5" width="20" height="17" as="geometry"/>
        </mxCell>
        <mxCell id="a__YISjz4CjjNZh90fcP-98" style="edgeStyle=none;rounded=0;orthogonalLoop=1;jettySize=auto;html=1;exitX=0.5;exitY=1;exitDx=0;exitDy=0;exitPerimeter=0;entryX=0.35;entryY=-0.024;entryDx=0;entryDy=0;entryPerimeter=0;endArrow=classic;endFill=1;startArrow=none;startFill=0;fillColor=#e1d5e7;strokeColor=#6600CC;" edge="1" parent="NAGiehs7lIZlc0TLEsgw-1" source="a__YISjz4CjjNZh90fcP-99" target="a__YISjz4CjjNZh90fcP-86">
          <mxGeometry relative="1" as="geometry"/>
        </mxCell>
        <mxCell id="a__YISjz4CjjNZh90fcP-99" value="" style="verticalLabelPosition=bottom;html=1;verticalAlign=top;align=center;strokeColor=none;fillColor=#00BEF2;shape=mxgraph.azure.computer;pointerEvents=1;" vertex="1" parent="NAGiehs7lIZlc0TLEsgw-1">
          <mxGeometry x="251.5" y="724.5" width="20" height="17" as="geometry"/>
        </mxCell>
        <mxCell id="a__YISjz4CjjNZh90fcP-100" value="" style="html=1;verticalLabelPosition=bottom;align=center;labelBackgroundColor=#ffffff;verticalAlign=top;strokeWidth=2;strokeColor=#0080F0;fillColor=#ffffff;shadow=0;dashed=0;shape=mxgraph.ios7.icons.user;" vertex="1" parent="NAGiehs7lIZlc0TLEsgw-1">
          <mxGeometry x="150" y="759" width="30" height="30" as="geometry"/>
        </mxCell>
        <mxCell id="a__YISjz4CjjNZh90fcP-101" value="" style="verticalLabelPosition=bottom;html=1;verticalAlign=top;align=center;strokeColor=none;fillColor=#00BEF2;shape=mxgraph.azure.computer;pointerEvents=1;" vertex="1" parent="NAGiehs7lIZlc0TLEsgw-1">
          <mxGeometry x="125.5" y="814" width="20" height="17" as="geometry"/>
        </mxCell>
        <mxCell id="a__YISjz4CjjNZh90fcP-102" value="" style="verticalLabelPosition=bottom;html=1;verticalAlign=top;align=center;strokeColor=none;fillColor=#00BEF2;shape=mxgraph.azure.computer;pointerEvents=1;" vertex="1" parent="NAGiehs7lIZlc0TLEsgw-1">
          <mxGeometry x="155.5" y="814" width="20" height="17" as="geometry"/>
        </mxCell>
        <mxCell id="a__YISjz4CjjNZh90fcP-103" value="" style="verticalLabelPosition=bottom;html=1;verticalAlign=top;align=center;strokeColor=none;fillColor=#00BEF2;shape=mxgraph.azure.computer;pointerEvents=1;" vertex="1" parent="NAGiehs7lIZlc0TLEsgw-1">
          <mxGeometry x="180" y="814" width="20" height="17" as="geometry"/>
        </mxCell>
        <mxCell id="a__YISjz4CjjNZh90fcP-104" value="" style="verticalLabelPosition=bottom;html=1;verticalAlign=top;align=center;strokeColor=none;fillColor=#00BEF2;shape=mxgraph.azure.computer;pointerEvents=1;" vertex="1" parent="NAGiehs7lIZlc0TLEsgw-1">
          <mxGeometry x="125" y="814" width="20" height="17" as="geometry"/>
        </mxCell>
        <mxCell id="a__YISjz4CjjNZh90fcP-105" style="edgeStyle=none;rounded=0;orthogonalLoop=1;jettySize=auto;html=1;exitX=0.5;exitY=1;exitDx=0;exitDy=0;exitPerimeter=0;entryX=0.496;entryY=0.017;entryDx=0;entryDy=0;entryPerimeter=0;endArrow=classic;endFill=1;startArrow=none;startFill=0;fillColor=#e1d5e7;strokeColor=#6600CC;strokeWidth=2;" edge="1" parent="NAGiehs7lIZlc0TLEsgw-1" source="a__YISjz4CjjNZh90fcP-106" target="a__YISjz4CjjNZh90fcP-100">
          <mxGeometry relative="1" as="geometry"/>
        </mxCell>
        <mxCell id="a__YISjz4CjjNZh90fcP-106" value="" style="verticalLabelPosition=bottom;html=1;verticalAlign=top;align=center;strokeColor=none;fillColor=#00BEF2;shape=mxgraph.azure.computer;pointerEvents=1;" vertex="1" parent="NAGiehs7lIZlc0TLEsgw-1">
          <mxGeometry x="161.5" y="724.5" width="20" height="17" as="geometry"/>
        </mxCell>
        <mxCell id="a__YISjz4CjjNZh90fcP-107" style="rounded=0;orthogonalLoop=1;jettySize=auto;html=1;exitX=0.5;exitY=0;exitDx=0;exitDy=0;exitPerimeter=0;entryX=0.672;entryY=1.011;entryDx=0;entryDy=0;entryPerimeter=0;endArrow=none;endFill=0;startArrow=classic;startFill=1;fillColor=#e1d5e7;strokeColor=#6600CC;strokeWidth=1;" edge="1" parent="NAGiehs7lIZlc0TLEsgw-1" source="a__YISjz4CjjNZh90fcP-99" target="a__YISjz4CjjNZh90fcP-96">
          <mxGeometry relative="1" as="geometry">
            <mxPoint x="201.5" y="734.5" as="sourcePoint"/>
            <mxPoint x="223.3900000000001" y="708.1" as="targetPoint"/>
          </mxGeometry>
        </mxCell>
        <mxCell id="a__YISjz4CjjNZh90fcP-108" value="维度1标记潜在大户" style="text;html=1;strokeColor=none;fillColor=none;align=center;verticalAlign=middle;whiteSpace=wrap;rounded=0;" vertex="1" parent="NAGiehs7lIZlc0TLEsgw-1">
          <mxGeometry x="237" y="674" width="117" height="20" as="geometry"/>
        </mxCell>
        <mxCell id="a__YISjz4CjjNZh90fcP-109" value="客户3" style="text;html=1;strokeColor=none;fillColor=none;align=center;verticalAlign=middle;whiteSpace=wrap;rounded=0;" vertex="1" parent="NAGiehs7lIZlc0TLEsgw-1">
          <mxGeometry x="179.5" y="764" width="40" height="20" as="geometry"/>
        </mxCell>
        <mxCell id="a__YISjz4CjjNZh90fcP-110" value="客户2" style="text;html=1;strokeColor=none;fillColor=none;align=center;verticalAlign=middle;whiteSpace=wrap;rounded=0;fontStyle=1" vertex="1" parent="NAGiehs7lIZlc0TLEsgw-1">
          <mxGeometry x="229" y="784" width="40" height="20" as="geometry"/>
        </mxCell>
        <mxCell id="a__YISjz4CjjNZh90fcP-114" value="" style="html=1;verticalLabelPosition=bottom;align=center;labelBackgroundColor=#ffffff;verticalAlign=top;strokeWidth=2;strokeColor=#0080F0;fillColor=#ffffff;shadow=0;dashed=0;shape=mxgraph.ios7.icons.user;" vertex="1" parent="NAGiehs7lIZlc0TLEsgw-1">
          <mxGeometry x="321.5" y="848.5" width="30" height="30" as="geometry"/>
        </mxCell>
        <mxCell id="a__YISjz4CjjNZh90fcP-115" style="rounded=0;orthogonalLoop=1;jettySize=auto;html=1;exitX=0.5;exitY=0;exitDx=0;exitDy=0;exitPerimeter=0;entryX=0.5;entryY=1.027;entryDx=0;entryDy=0;entryPerimeter=0;endArrow=none;endFill=0;startArrow=classic;startFill=1;fillColor=#e1d5e7;strokeColor=#FF0000;" edge="1" parent="NAGiehs7lIZlc0TLEsgw-1" source="a__YISjz4CjjNZh90fcP-116" target="a__YISjz4CjjNZh90fcP-114">
          <mxGeometry relative="1" as="geometry"/>
        </mxCell>
        <mxCell id="a__YISjz4CjjNZh90fcP-116" value="" style="verticalLabelPosition=bottom;html=1;verticalAlign=top;align=center;strokeColor=none;fillColor=#00BEF2;shape=mxgraph.azure.computer;pointerEvents=1;" vertex="1" parent="NAGiehs7lIZlc0TLEsgw-1">
          <mxGeometry x="311.5" y="903.5" width="20" height="17" as="geometry"/>
        </mxCell>
        <mxCell id="a__YISjz4CjjNZh90fcP-117" value="" style="verticalLabelPosition=bottom;html=1;verticalAlign=top;align=center;strokeColor=none;fillColor=#00BEF2;shape=mxgraph.azure.computer;pointerEvents=1;" vertex="1" parent="NAGiehs7lIZlc0TLEsgw-1">
          <mxGeometry x="341.5" y="903.5" width="20" height="17" as="geometry"/>
        </mxCell>
        <mxCell id="a__YISjz4CjjNZh90fcP-118" style="rounded=0;orthogonalLoop=1;jettySize=auto;html=1;exitX=0.509;exitY=1.007;exitDx=0;exitDy=0;exitPerimeter=0;entryX=0.5;entryY=0;entryDx=0;entryDy=0;entryPerimeter=0;endArrow=classic;endFill=1;startArrow=none;startFill=0;fillColor=#e1d5e7;strokeColor=#FF0000;" edge="1" parent="NAGiehs7lIZlc0TLEsgw-1" source="a__YISjz4CjjNZh90fcP-114" target="a__YISjz4CjjNZh90fcP-117">
          <mxGeometry relative="1" as="geometry">
            <mxPoint x="331.5" y="913.5" as="sourcePoint"/>
            <mxPoint x="346.5" y="889.3100000000001" as="targetPoint"/>
          </mxGeometry>
        </mxCell>
        <mxCell id="a__YISjz4CjjNZh90fcP-120" style="rounded=0;orthogonalLoop=1;jettySize=auto;html=1;exitX=0.306;exitY=0.08;exitDx=0;exitDy=0;exitPerimeter=0;entryX=0.271;entryY=0.99;entryDx=0;entryDy=0;entryPerimeter=0;endArrow=none;endFill=0;startArrow=classic;startFill=1;fillColor=#e1d5e7;strokeColor=#FF0000;strokeWidth=2;" edge="1" parent="NAGiehs7lIZlc0TLEsgw-1" source="a__YISjz4CjjNZh90fcP-88" target="a__YISjz4CjjNZh90fcP-86">
          <mxGeometry relative="1" as="geometry">
            <mxPoint x="518.8899999999999" y="629.0999999999999" as="targetPoint"/>
          </mxGeometry>
        </mxCell>
        <mxCell id="a__YISjz4CjjNZh90fcP-121" style="rounded=0;orthogonalLoop=1;jettySize=auto;html=1;exitX=0.5;exitY=0;exitDx=0;exitDy=0;exitPerimeter=0;entryX=0.5;entryY=1.027;entryDx=0;entryDy=0;entryPerimeter=0;endArrow=none;endFill=0;startArrow=classic;startFill=1;fillColor=#e1d5e7;strokeColor=#FF0000;" edge="1" parent="NAGiehs7lIZlc0TLEsgw-1" source="a__YISjz4CjjNZh90fcP-129" target="a__YISjz4CjjNZh90fcP-128">
          <mxGeometry relative="1" as="geometry"/>
        </mxCell>
        <mxCell id="a__YISjz4CjjNZh90fcP-122" style="rounded=0;orthogonalLoop=1;jettySize=auto;html=1;exitX=0.509;exitY=1.007;exitDx=0;exitDy=0;exitPerimeter=0;entryX=0.5;entryY=0;entryDx=0;entryDy=0;entryPerimeter=0;endArrow=classic;endFill=1;startArrow=none;startFill=0;fillColor=#e1d5e7;strokeColor=#FF0000;" edge="1" parent="NAGiehs7lIZlc0TLEsgw-1" source="a__YISjz4CjjNZh90fcP-128" target="a__YISjz4CjjNZh90fcP-130">
          <mxGeometry relative="1" as="geometry">
            <mxPoint x="234.5" y="913.5" as="sourcePoint"/>
            <mxPoint x="249.5" y="889.31" as="targetPoint"/>
          </mxGeometry>
        </mxCell>
        <mxCell id="a__YISjz4CjjNZh90fcP-123" style="rounded=0;orthogonalLoop=1;jettySize=auto;html=1;entryX=0.5;entryY=0;entryDx=0;entryDy=0;entryPerimeter=0;endArrow=classic;endFill=1;startArrow=none;startFill=0;fillColor=#e1d5e7;strokeColor=#FF0000;" edge="1" parent="NAGiehs7lIZlc0TLEsgw-1" target="a__YISjz4CjjNZh90fcP-131">
          <mxGeometry relative="1" as="geometry">
            <mxPoint x="254.5" y="878.5" as="sourcePoint"/>
            <mxPoint x="274" y="889.31" as="targetPoint"/>
          </mxGeometry>
        </mxCell>
        <mxCell id="a__YISjz4CjjNZh90fcP-126" style="edgeStyle=none;rounded=0;orthogonalLoop=1;jettySize=auto;html=1;exitX=0.5;exitY=1;exitDx=0;exitDy=0;exitPerimeter=0;entryX=0.35;entryY=-0.024;entryDx=0;entryDy=0;entryPerimeter=0;endArrow=classic;endFill=1;startArrow=none;startFill=0;fillColor=#e1d5e7;strokeColor=#FF0000;" edge="1" parent="NAGiehs7lIZlc0TLEsgw-1" source="a__YISjz4CjjNZh90fcP-89" target="a__YISjz4CjjNZh90fcP-114">
          <mxGeometry relative="1" as="geometry">
            <mxPoint x="321.5" y="831" as="sourcePoint"/>
          </mxGeometry>
        </mxCell>
        <mxCell id="a__YISjz4CjjNZh90fcP-128" value="" style="html=1;verticalLabelPosition=bottom;align=center;labelBackgroundColor=#ffffff;verticalAlign=top;strokeWidth=2;strokeColor=#0080F0;fillColor=#ffffff;shadow=0;dashed=0;shape=mxgraph.ios7.icons.user;" vertex="1" parent="NAGiehs7lIZlc0TLEsgw-1">
          <mxGeometry x="239" y="848.5" width="30" height="30" as="geometry"/>
        </mxCell>
        <mxCell id="a__YISjz4CjjNZh90fcP-129" value="" style="verticalLabelPosition=bottom;html=1;verticalAlign=top;align=center;strokeColor=none;fillColor=#00BEF2;shape=mxgraph.azure.computer;pointerEvents=1;" vertex="1" parent="NAGiehs7lIZlc0TLEsgw-1">
          <mxGeometry x="214.5" y="903.5" width="20" height="17" as="geometry"/>
        </mxCell>
        <mxCell id="a__YISjz4CjjNZh90fcP-130" value="" style="verticalLabelPosition=bottom;html=1;verticalAlign=top;align=center;strokeColor=none;fillColor=#00BEF2;shape=mxgraph.azure.computer;pointerEvents=1;" vertex="1" parent="NAGiehs7lIZlc0TLEsgw-1">
          <mxGeometry x="244.5" y="903.5" width="20" height="17" as="geometry"/>
        </mxCell>
        <mxCell id="a__YISjz4CjjNZh90fcP-131" value="" style="verticalLabelPosition=bottom;html=1;verticalAlign=top;align=center;strokeColor=none;fillColor=#00BEF2;shape=mxgraph.azure.computer;pointerEvents=1;" vertex="1" parent="NAGiehs7lIZlc0TLEsgw-1">
          <mxGeometry x="269" y="903.5" width="20" height="17" as="geometry"/>
        </mxCell>
        <mxCell id="a__YISjz4CjjNZh90fcP-132" value="" style="verticalLabelPosition=bottom;html=1;verticalAlign=top;align=center;strokeColor=none;fillColor=#00BEF2;shape=mxgraph.azure.computer;pointerEvents=1;" vertex="1" parent="NAGiehs7lIZlc0TLEsgw-1">
          <mxGeometry x="214" y="903.5" width="20" height="17" as="geometry"/>
        </mxCell>
        <mxCell id="a__YISjz4CjjNZh90fcP-133" style="edgeStyle=none;rounded=0;orthogonalLoop=1;jettySize=auto;html=1;exitX=0.5;exitY=1;exitDx=0;exitDy=0;exitPerimeter=0;entryX=0.496;entryY=0.017;entryDx=0;entryDy=0;entryPerimeter=0;endArrow=classic;endFill=1;startArrow=none;startFill=0;fillColor=#e1d5e7;strokeColor=#FF0000;strokeWidth=2;" edge="1" parent="NAGiehs7lIZlc0TLEsgw-1" target="a__YISjz4CjjNZh90fcP-128">
          <mxGeometry relative="1" as="geometry">
            <mxPoint x="260.5" y="831" as="sourcePoint"/>
          </mxGeometry>
        </mxCell>
        <mxCell id="a__YISjz4CjjNZh90fcP-135" style="rounded=0;orthogonalLoop=1;jettySize=auto;html=1;exitX=0.5;exitY=0;exitDx=0;exitDy=0;exitPerimeter=0;entryX=0.775;entryY=0.96;entryDx=0;entryDy=0;entryPerimeter=0;endArrow=none;endFill=0;startArrow=classic;startFill=1;fillColor=#e1d5e7;strokeColor=#FF0000;strokeWidth=1;" edge="1" parent="NAGiehs7lIZlc0TLEsgw-1" source="a__YISjz4CjjNZh90fcP-89" target="a__YISjz4CjjNZh90fcP-86">
          <mxGeometry relative="1" as="geometry">
            <mxPoint x="507" y="665.5" as="sourcePoint"/>
            <mxPoint x="528.1599999999999" y="630.3299999999999" as="targetPoint"/>
          </mxGeometry>
        </mxCell>
        <mxCell id="a__YISjz4CjjNZh90fcP-137" value="客户4" style="text;html=1;strokeColor=none;fillColor=none;align=center;verticalAlign=middle;whiteSpace=wrap;rounded=0;" vertex="1" parent="NAGiehs7lIZlc0TLEsgw-1">
          <mxGeometry x="269" y="853.5" width="40" height="20" as="geometry"/>
        </mxCell>
        <mxCell id="a__YISjz4CjjNZh90fcP-138" value="客户5" style="text;html=1;strokeColor=none;fillColor=none;align=center;verticalAlign=middle;whiteSpace=wrap;rounded=0;" vertex="1" parent="NAGiehs7lIZlc0TLEsgw-1">
          <mxGeometry x="357" y="853" width="40" height="20" as="geometry"/>
        </mxCell>
        <mxCell id="a__YISjz4CjjNZh90fcP-139" value="" style="endArrow=classic;startArrow=classic;html=1;strokeColor=#000000;strokeWidth=1;" edge="1" parent="NAGiehs7lIZlc0TLEsgw-1">
          <mxGeometry width="50" height="50" relative="1" as="geometry">
            <mxPoint x="240" y="490" as="sourcePoint"/>
            <mxPoint x="390" y="440" as="targetPoint"/>
          </mxGeometry>
        </mxCell>
        <mxCell id="a__YISjz4CjjNZh90fcP-142" value="维度2标记潜在大户" style="text;html=1;" vertex="1" parent="NAGiehs7lIZlc0TLEsgw-1">
          <mxGeometry x="294" y="759" width="117" height="30" as="geometry"/>
        </mxCell>
      </root>
    </mxGraphModel>
  </diagram>
</mxfile>
